<?xml version="1.0" encoding="utf-8" standalone="no"?>
<!DOCTYPE svg PUBLIC "-//W3C//DTD SVG 1.1//EN"
  "http://www.w3.org/Graphics/SVG/1.1/DTD/svg11.dtd">
<svg xmlns:xlink="http://www.w3.org/1999/xlink" width="720pt" height="432pt" viewBox="0 0 720 432" xmlns="http://www.w3.org/2000/svg" version="1.1">
 <metadata>
  <rdf:RDF xmlns:dc="http://purl.org/dc/elements/1.1/" xmlns:cc="http://creativecommons.org/ns#" xmlns:rdf="http://www.w3.org/1999/02/22-rdf-syntax-ns#">
   <cc:Work>
    <dc:type rdf:resource="http://purl.org/dc/dcmitype/StillImage"/>
    <dc:date>2024-11-07T13:26:09.019722</dc:date>
    <dc:format>image/svg+xml</dc:format>
    <dc:creator>
     <cc:Agent>
      <dc:title>Matplotlib v3.9.2, https://matplotlib.org/</dc:title>
     </cc:Agent>
    </dc:creator>
   </cc:Work>
  </rdf:RDF>
 </metadata>
 <defs>
  <style type="text/css">*{stroke-linejoin: round; stroke-linecap: butt}</style>
 </defs>
 <g id="figure_1">
  <g id="patch_1">
   <path d="M 0 432 
L 720 432 
L 720 0 
L 0 0 
z
" style="fill: #ffffff"/>
  </g>
  <g id="axes_1">
   <g id="patch_2">
    <path d="M 90 384.48 
L 648 384.48 
L 648 51.84 
L 90 51.84 
z
" style="fill: #ffffff"/>
   </g>
   <g id="patch_3">
    <path d="M 115.363636 384.48 
L 117.34517 384.48 
L 117.34517 133.911579 
L 115.363636 133.911579 
z
" clip-path="url(#pa28d57b86a)" style="fill: #1f77b4"/>
   </g>
   <g id="patch_4">
    <path d="M 117.34517 384.48 
L 119.326705 384.48 
L 119.326705 96.627368 
L 117.34517 96.627368 
z
" clip-path="url(#pa28d57b86a)" style="fill: #1f77b4"/>
   </g>
   <g id="patch_5">
    <path d="M 119.326705 384.48 
L 121.308239 384.48 
L 121.308239 67.68 
L 119.326705 67.68 
z
" clip-path="url(#pa28d57b86a)" style="fill: #1f77b4"/>
   </g>
   <g id="patch_6">
    <path d="M 121.308239 384.48 
L 123.289773 384.48 
L 123.289773 140.858947 
L 121.308239 140.858947 
z
" clip-path="url(#pa28d57b86a)" style="fill: #1f77b4"/>
   </g>
   <g id="patch_7">
    <path d="M 123.289773 384.48 
L 125.271307 384.48 
L 125.271307 152.669474 
L 123.289773 152.669474 
z
" clip-path="url(#pa28d57b86a)" style="fill: #1f77b4"/>
   </g>
   <g id="patch_8">
    <path d="M 125.271307 384.48 
L 127.252841 384.48 
L 127.252841 213.574737 
L 125.271307 213.574737 
z
" clip-path="url(#pa28d57b86a)" style="fill: #1f77b4"/>
   </g>
   <g id="patch_9">
    <path d="M 127.252841 384.48 
L 129.234375 384.48 
L 129.234375 174.437895 
L 127.252841 174.437895 
z
" clip-path="url(#pa28d57b86a)" style="fill: #1f77b4"/>
   </g>
   <g id="patch_10">
    <path d="M 129.234375 384.48 
L 131.215909 384.48 
L 131.215909 179.301053 
L 129.234375 179.301053 
z
" clip-path="url(#pa28d57b86a)" style="fill: #1f77b4"/>
   </g>
   <g id="patch_11">
    <path d="M 131.215909 384.48 
L 133.197443 384.48 
L 133.197443 238.816842 
L 131.215909 238.816842 
z
" clip-path="url(#pa28d57b86a)" style="fill: #1f77b4"/>
   </g>
   <g id="patch_12">
    <path d="M 133.197443 384.48 
L 135.178977 384.48 
L 135.178977 261.974737 
L 133.197443 261.974737 
z
" clip-path="url(#pa28d57b86a)" style="fill: #1f77b4"/>
   </g>
   <g id="patch_13">
    <path d="M 135.178977 384.48 
L 137.160511 384.48 
L 137.160511 307.364211 
L 135.178977 307.364211 
z
" clip-path="url(#pa28d57b86a)" style="fill: #1f77b4"/>
   </g>
   <g id="patch_14">
    <path d="M 137.160511 384.48 
L 139.142045 384.48 
L 139.142045 283.974737 
L 137.160511 283.974737 
z
" clip-path="url(#pa28d57b86a)" style="fill: #1f77b4"/>
   </g>
   <g id="patch_15">
    <path d="M 139.142045 384.48 
L 141.12358 384.48 
L 141.12358 326.816842 
L 139.142045 326.816842 
z
" clip-path="url(#pa28d57b86a)" style="fill: #1f77b4"/>
   </g>
   <g id="patch_16">
    <path d="M 141.12358 384.48 
L 143.105114 384.48 
L 143.105114 285.595789 
L 141.12358 285.595789 
z
" clip-path="url(#pa28d57b86a)" style="fill: #1f77b4"/>
   </g>
   <g id="patch_17">
    <path d="M 143.105114 384.48 
L 145.086648 384.48 
L 145.086648 328.206316 
L 143.105114 328.206316 
z
" clip-path="url(#pa28d57b86a)" style="fill: #1f77b4"/>
   </g>
   <g id="patch_18">
    <path d="M 145.086648 384.48 
L 147.068182 384.48 
L 147.068182 306.206316 
L 145.086648 306.206316 
z
" clip-path="url(#pa28d57b86a)" style="fill: #1f77b4"/>
   </g>
   <g id="patch_19">
    <path d="M 147.068182 384.48 
L 149.049716 384.48 
L 149.049716 324.732632 
L 147.068182 324.732632 
z
" clip-path="url(#pa28d57b86a)" style="fill: #1f77b4"/>
   </g>
   <g id="patch_20">
    <path d="M 149.049716 384.48 
L 151.03125 384.48 
L 151.03125 330.522105 
L 149.049716 330.522105 
z
" clip-path="url(#pa28d57b86a)" style="fill: #1f77b4"/>
   </g>
   <g id="patch_21">
    <path d="M 151.03125 384.48 
L 153.012784 384.48 
L 153.012784 325.195789 
L 151.03125 325.195789 
z
" clip-path="url(#pa28d57b86a)" style="fill: #1f77b4"/>
   </g>
   <g id="patch_22">
    <path d="M 153.012784 384.48 
L 154.994318 384.48 
L 154.994318 339.322105 
L 153.012784 339.322105 
z
" clip-path="url(#pa28d57b86a)" style="fill: #1f77b4"/>
   </g>
   <g id="patch_23">
    <path d="M 154.994318 384.48 
L 156.975852 384.48 
L 156.975852 308.985263 
L 154.994318 308.985263 
z
" clip-path="url(#pa28d57b86a)" style="fill: #1f77b4"/>
   </g>
   <g id="patch_24">
    <path d="M 156.975852 384.48 
L 158.957386 384.48 
L 158.957386 327.28 
L 156.975852 327.28 
z
" clip-path="url(#pa28d57b86a)" style="fill: #1f77b4"/>
   </g>
   <g id="patch_25">
    <path d="M 158.957386 384.48 
L 160.93892 384.48 
L 160.93892 278.648421 
L 158.957386 278.648421 
z
" clip-path="url(#pa28d57b86a)" style="fill: #1f77b4"/>
   </g>
   <g id="patch_26">
    <path d="M 160.93892 384.48 
L 162.920455 384.48 
L 162.920455 284.437895 
L 160.93892 284.437895 
z
" clip-path="url(#pa28d57b86a)" style="fill: #1f77b4"/>
   </g>
   <g id="patch_27">
    <path d="M 162.920455 384.48 
L 164.901989 384.48 
L 164.901989 241.132632 
L 162.920455 241.132632 
z
" clip-path="url(#pa28d57b86a)" style="fill: #1f77b4"/>
   </g>
   <g id="patch_28">
    <path d="M 164.901989 384.48 
L 166.883523 384.48 
L 166.883523 283.974737 
L 164.901989 283.974737 
z
" clip-path="url(#pa28d57b86a)" style="fill: #1f77b4"/>
   </g>
   <g id="patch_29">
    <path d="M 166.883523 384.48 
L 168.865057 384.48 
L 168.865057 305.28 
L 166.883523 305.28 
z
" clip-path="url(#pa28d57b86a)" style="fill: #1f77b4"/>
   </g>
   <g id="patch_30">
    <path d="M 168.865057 384.48 
L 170.846591 384.48 
L 170.846591 276.564211 
L 168.865057 276.564211 
z
" clip-path="url(#pa28d57b86a)" style="fill: #1f77b4"/>
   </g>
   <g id="patch_31">
    <path d="M 170.846591 384.48 
L 172.828125 384.48 
L 172.828125 329.364211 
L 170.846591 329.364211 
z
" clip-path="url(#pa28d57b86a)" style="fill: #1f77b4"/>
   </g>
   <g id="patch_32">
    <path d="M 172.828125 384.48 
L 174.809659 384.48 
L 174.809659 271.469474 
L 172.828125 271.469474 
z
" clip-path="url(#pa28d57b86a)" style="fill: #1f77b4"/>
   </g>
   <g id="patch_33">
    <path d="M 174.809659 384.48 
L 176.791193 384.48 
L 176.791193 325.427368 
L 174.809659 325.427368 
z
" clip-path="url(#pa28d57b86a)" style="fill: #1f77b4"/>
   </g>
   <g id="patch_34">
    <path d="M 176.791193 384.48 
L 178.772727 384.48 
L 178.772727 308.290526 
L 176.791193 308.290526 
z
" clip-path="url(#pa28d57b86a)" style="fill: #1f77b4"/>
   </g>
   <g id="patch_35">
    <path d="M 178.772727 384.48 
L 180.754261 384.48 
L 180.754261 285.364211 
L 178.772727 285.364211 
z
" clip-path="url(#pa28d57b86a)" style="fill: #1f77b4"/>
   </g>
   <g id="patch_36">
    <path d="M 180.754261 384.48 
L 182.735795 384.48 
L 182.735795 285.595789 
L 180.754261 285.595789 
z
" clip-path="url(#pa28d57b86a)" style="fill: #1f77b4"/>
   </g>
   <g id="patch_37">
    <path d="M 182.735795 384.48 
L 184.71733 384.48 
L 184.71733 300.416842 
L 182.735795 300.416842 
z
" clip-path="url(#pa28d57b86a)" style="fill: #1f77b4"/>
   </g>
   <g id="patch_38">
    <path d="M 184.71733 384.48 
L 186.698864 384.48 
L 186.698864 280.501053 
L 184.71733 280.501053 
z
" clip-path="url(#pa28d57b86a)" style="fill: #1f77b4"/>
   </g>
   <g id="patch_39">
    <path d="M 186.698864 384.48 
L 188.680398 384.48 
L 188.680398 161.701053 
L 186.698864 161.701053 
z
" clip-path="url(#pa28d57b86a)" style="fill: #1f77b4"/>
   </g>
   <g id="patch_40">
    <path d="M 188.680398 384.48 
L 190.661932 384.48 
L 190.661932 274.711579 
L 188.680398 274.711579 
z
" clip-path="url(#pa28d57b86a)" style="fill: #1f77b4"/>
   </g>
   <g id="patch_41">
    <path d="M 190.661932 384.48 
L 192.643466 384.48 
L 192.643466 337.932632 
L 190.661932 337.932632 
z
" clip-path="url(#pa28d57b86a)" style="fill: #1f77b4"/>
   </g>
   <g id="patch_42">
    <path d="M 192.643466 384.48 
L 194.625 384.48 
L 194.625 368.501053 
L 192.643466 368.501053 
z
" clip-path="url(#pa28d57b86a)" style="fill: #1f77b4"/>
   </g>
   <g id="patch_43">
    <path d="M 194.625 384.48 
L 196.606534 384.48 
L 196.606534 370.353684 
L 194.625 370.353684 
z
" clip-path="url(#pa28d57b86a)" style="fill: #1f77b4"/>
   </g>
   <g id="patch_44">
    <path d="M 196.606534 384.48 
L 198.588068 384.48 
L 198.588068 372.437895 
L 196.606534 372.437895 
z
" clip-path="url(#pa28d57b86a)" style="fill: #1f77b4"/>
   </g>
   <g id="patch_45">
    <path d="M 198.588068 384.48 
L 200.569602 384.48 
L 200.569602 372.901053 
L 198.588068 372.901053 
z
" clip-path="url(#pa28d57b86a)" style="fill: #1f77b4"/>
   </g>
   <g id="patch_46">
    <path d="M 200.569602 384.48 
L 202.551136 384.48 
L 202.551136 376.143158 
L 200.569602 376.143158 
z
" clip-path="url(#pa28d57b86a)" style="fill: #1f77b4"/>
   </g>
   <g id="patch_47">
    <path d="M 202.551136 384.48 
L 204.53267 384.48 
L 204.53267 374.522105 
L 202.551136 374.522105 
z
" clip-path="url(#pa28d57b86a)" style="fill: #1f77b4"/>
   </g>
   <g id="patch_48">
    <path d="M 204.53267 384.48 
L 206.514205 384.48 
L 206.514205 375.448421 
L 204.53267 375.448421 
z
" clip-path="url(#pa28d57b86a)" style="fill: #1f77b4"/>
   </g>
   <g id="patch_49">
    <path d="M 206.514205 384.48 
L 208.495739 384.48 
L 208.495739 375.448421 
L 206.514205 375.448421 
z
" clip-path="url(#pa28d57b86a)" style="fill: #1f77b4"/>
   </g>
   <g id="patch_50">
    <path d="M 208.495739 384.48 
L 210.477273 384.48 
L 210.477273 376.837895 
L 208.495739 376.837895 
z
" clip-path="url(#pa28d57b86a)" style="fill: #1f77b4"/>
   </g>
   <g id="patch_51">
    <path d="M 210.477273 384.48 
L 212.458807 384.48 
L 212.458807 376.606316 
L 210.477273 376.606316 
z
" clip-path="url(#pa28d57b86a)" style="fill: #1f77b4"/>
   </g>
   <g id="patch_52">
    <path d="M 212.458807 384.48 
L 214.440341 384.48 
L 214.440341 378.922105 
L 212.458807 378.922105 
z
" clip-path="url(#pa28d57b86a)" style="fill: #1f77b4"/>
   </g>
   <g id="patch_53">
    <path d="M 214.440341 384.48 
L 216.421875 384.48 
L 216.421875 376.606316 
L 214.440341 376.606316 
z
" clip-path="url(#pa28d57b86a)" style="fill: #1f77b4"/>
   </g>
   <g id="patch_54">
    <path d="M 216.421875 384.48 
L 218.403409 384.48 
L 218.403409 376.837895 
L 216.421875 376.837895 
z
" clip-path="url(#pa28d57b86a)" style="fill: #1f77b4"/>
   </g>
   <g id="patch_55">
    <path d="M 218.403409 384.48 
L 220.384943 384.48 
L 220.384943 376.374737 
L 218.403409 376.374737 
z
" clip-path="url(#pa28d57b86a)" style="fill: #1f77b4"/>
   </g>
   <g id="patch_56">
    <path d="M 220.384943 384.48 
L 222.366477 384.48 
L 222.366477 376.374737 
L 220.384943 376.374737 
z
" clip-path="url(#pa28d57b86a)" style="fill: #1f77b4"/>
   </g>
   <g id="patch_57">
    <path d="M 222.366477 384.48 
L 224.348011 384.48 
L 224.348011 375.448421 
L 222.366477 375.448421 
z
" clip-path="url(#pa28d57b86a)" style="fill: #1f77b4"/>
   </g>
   <g id="patch_58">
    <path d="M 224.348011 384.48 
L 226.329545 384.48 
L 226.329545 376.606316 
L 224.348011 376.606316 
z
" clip-path="url(#pa28d57b86a)" style="fill: #1f77b4"/>
   </g>
   <g id="patch_59">
    <path d="M 226.329545 384.48 
L 228.31108 384.48 
L 228.31108 377.301053 
L 226.329545 377.301053 
z
" clip-path="url(#pa28d57b86a)" style="fill: #1f77b4"/>
   </g>
   <g id="patch_60">
    <path d="M 228.31108 384.48 
L 230.292614 384.48 
L 230.292614 378.458947 
L 228.31108 378.458947 
z
" clip-path="url(#pa28d57b86a)" style="fill: #1f77b4"/>
   </g>
   <g id="patch_61">
    <path d="M 230.292614 384.48 
L 232.274148 384.48 
L 232.274148 377.532632 
L 230.292614 377.532632 
z
" clip-path="url(#pa28d57b86a)" style="fill: #1f77b4"/>
   </g>
   <g id="patch_62">
    <path d="M 232.274148 384.48 
L 234.255682 384.48 
L 234.255682 376.837895 
L 232.274148 376.837895 
z
" clip-path="url(#pa28d57b86a)" style="fill: #1f77b4"/>
   </g>
   <g id="patch_63">
    <path d="M 234.255682 384.48 
L 236.237216 384.48 
L 236.237216 377.532632 
L 234.255682 377.532632 
z
" clip-path="url(#pa28d57b86a)" style="fill: #1f77b4"/>
   </g>
   <g id="patch_64">
    <path d="M 236.237216 384.48 
L 238.21875 384.48 
L 238.21875 377.069474 
L 236.237216 377.069474 
z
" clip-path="url(#pa28d57b86a)" style="fill: #1f77b4"/>
   </g>
   <g id="patch_65">
    <path d="M 238.21875 384.48 
L 240.200284 384.48 
L 240.200284 374.522105 
L 238.21875 374.522105 
z
" clip-path="url(#pa28d57b86a)" style="fill: #1f77b4"/>
   </g>
   <g id="patch_66">
    <path d="M 240.200284 384.48 
L 242.181818 384.48 
L 242.181818 377.069474 
L 240.200284 377.069474 
z
" clip-path="url(#pa28d57b86a)" style="fill: #1f77b4"/>
   </g>
   <g id="patch_67">
    <path d="M 242.181818 384.48 
L 244.163352 384.48 
L 244.163352 376.374737 
L 242.181818 376.374737 
z
" clip-path="url(#pa28d57b86a)" style="fill: #1f77b4"/>
   </g>
   <g id="patch_68">
    <path d="M 244.163352 384.48 
L 246.144886 384.48 
L 246.144886 376.837895 
L 244.163352 376.837895 
z
" clip-path="url(#pa28d57b86a)" style="fill: #1f77b4"/>
   </g>
   <g id="patch_69">
    <path d="M 246.144886 384.48 
L 248.12642 384.48 
L 248.12642 376.606316 
L 246.144886 376.606316 
z
" clip-path="url(#pa28d57b86a)" style="fill: #1f77b4"/>
   </g>
   <g id="patch_70">
    <path d="M 248.12642 384.48 
L 250.107955 384.48 
L 250.107955 375.448421 
L 248.12642 375.448421 
z
" clip-path="url(#pa28d57b86a)" style="fill: #1f77b4"/>
   </g>
   <g id="patch_71">
    <path d="M 250.107955 384.48 
L 252.089489 384.48 
L 252.089489 376.606316 
L 250.107955 376.606316 
z
" clip-path="url(#pa28d57b86a)" style="fill: #1f77b4"/>
   </g>
   <g id="patch_72">
    <path d="M 252.089489 384.48 
L 254.071023 384.48 
L 254.071023 375.911579 
L 252.089489 375.911579 
z
" clip-path="url(#pa28d57b86a)" style="fill: #1f77b4"/>
   </g>
   <g id="patch_73">
    <path d="M 254.071023 384.48 
L 256.052557 384.48 
L 256.052557 374.290526 
L 254.071023 374.290526 
z
" clip-path="url(#pa28d57b86a)" style="fill: #1f77b4"/>
   </g>
   <g id="patch_74">
    <path d="M 256.052557 384.48 
L 258.034091 384.48 
L 258.034091 375.68 
L 256.052557 375.68 
z
" clip-path="url(#pa28d57b86a)" style="fill: #1f77b4"/>
   </g>
   <g id="patch_75">
    <path d="M 258.034091 384.48 
L 260.015625 384.48 
L 260.015625 376.374737 
L 258.034091 376.374737 
z
" clip-path="url(#pa28d57b86a)" style="fill: #1f77b4"/>
   </g>
   <g id="patch_76">
    <path d="M 260.015625 384.48 
L 261.997159 384.48 
L 261.997159 374.753684 
L 260.015625 374.753684 
z
" clip-path="url(#pa28d57b86a)" style="fill: #1f77b4"/>
   </g>
   <g id="patch_77">
    <path d="M 261.997159 384.48 
L 263.978693 384.48 
L 263.978693 372.901053 
L 261.997159 372.901053 
z
" clip-path="url(#pa28d57b86a)" style="fill: #1f77b4"/>
   </g>
   <g id="patch_78">
    <path d="M 263.978693 384.48 
L 265.960227 384.48 
L 265.960227 370.816842 
L 263.978693 370.816842 
z
" clip-path="url(#pa28d57b86a)" style="fill: #1f77b4"/>
   </g>
   <g id="patch_79">
    <path d="M 265.960227 384.48 
L 267.941761 384.48 
L 267.941761 373.132632 
L 265.960227 373.132632 
z
" clip-path="url(#pa28d57b86a)" style="fill: #1f77b4"/>
   </g>
   <g id="patch_80">
    <path d="M 267.941761 384.48 
L 269.923295 384.48 
L 269.923295 372.901053 
L 267.941761 372.901053 
z
" clip-path="url(#pa28d57b86a)" style="fill: #1f77b4"/>
   </g>
   <g id="patch_81">
    <path d="M 269.923295 384.48 
L 271.90483 384.48 
L 271.90483 372.206316 
L 269.923295 372.206316 
z
" clip-path="url(#pa28d57b86a)" style="fill: #1f77b4"/>
   </g>
   <g id="patch_82">
    <path d="M 271.90483 384.48 
L 273.886364 384.48 
L 273.886364 368.501053 
L 271.90483 368.501053 
z
" clip-path="url(#pa28d57b86a)" style="fill: #1f77b4"/>
   </g>
   <g id="patch_83">
    <path d="M 273.886364 384.48 
L 275.867898 384.48 
L 275.867898 369.658947 
L 273.886364 369.658947 
z
" clip-path="url(#pa28d57b86a)" style="fill: #1f77b4"/>
   </g>
   <g id="patch_84">
    <path d="M 275.867898 384.48 
L 277.849432 384.48 
L 277.849432 371.048421 
L 275.867898 371.048421 
z
" clip-path="url(#pa28d57b86a)" style="fill: #1f77b4"/>
   </g>
   <g id="patch_85">
    <path d="M 277.849432 384.48 
L 279.830966 384.48 
L 279.830966 370.816842 
L 277.849432 370.816842 
z
" clip-path="url(#pa28d57b86a)" style="fill: #1f77b4"/>
   </g>
   <g id="patch_86">
    <path d="M 279.830966 384.48 
L 281.8125 384.48 
L 281.8125 369.890526 
L 279.830966 369.890526 
z
" clip-path="url(#pa28d57b86a)" style="fill: #1f77b4"/>
   </g>
   <g id="patch_87">
    <path d="M 281.8125 384.48 
L 283.794034 384.48 
L 283.794034 369.890526 
L 281.8125 369.890526 
z
" clip-path="url(#pa28d57b86a)" style="fill: #1f77b4"/>
   </g>
   <g id="patch_88">
    <path d="M 283.794034 384.48 
L 285.775568 384.48 
L 285.775568 369.195789 
L 283.794034 369.195789 
z
" clip-path="url(#pa28d57b86a)" style="fill: #1f77b4"/>
   </g>
   <g id="patch_89">
    <path d="M 285.775568 384.48 
L 287.757102 384.48 
L 287.757102 370.585263 
L 285.775568 370.585263 
z
" clip-path="url(#pa28d57b86a)" style="fill: #1f77b4"/>
   </g>
   <g id="patch_90">
    <path d="M 287.757102 384.48 
L 289.738636 384.48 
L 289.738636 371.511579 
L 287.757102 371.511579 
z
" clip-path="url(#pa28d57b86a)" style="fill: #1f77b4"/>
   </g>
   <g id="patch_91">
    <path d="M 289.738636 384.48 
L 291.72017 384.48 
L 291.72017 368.501053 
L 289.738636 368.501053 
z
" clip-path="url(#pa28d57b86a)" style="fill: #1f77b4"/>
   </g>
   <g id="patch_92">
    <path d="M 291.72017 384.48 
L 293.701705 384.48 
L 293.701705 368.964211 
L 291.72017 368.964211 
z
" clip-path="url(#pa28d57b86a)" style="fill: #1f77b4"/>
   </g>
   <g id="patch_93">
    <path d="M 293.701705 384.48 
L 295.683239 384.48 
L 295.683239 368.732632 
L 293.701705 368.732632 
z
" clip-path="url(#pa28d57b86a)" style="fill: #1f77b4"/>
   </g>
   <g id="patch_94">
    <path d="M 295.683239 384.48 
L 297.664773 384.48 
L 297.664773 369.195789 
L 295.683239 369.195789 
z
" clip-path="url(#pa28d57b86a)" style="fill: #1f77b4"/>
   </g>
   <g id="patch_95">
    <path d="M 297.664773 384.48 
L 299.646307 384.48 
L 299.646307 369.658947 
L 297.664773 369.658947 
z
" clip-path="url(#pa28d57b86a)" style="fill: #1f77b4"/>
   </g>
   <g id="patch_96">
    <path d="M 299.646307 384.48 
L 301.627841 384.48 
L 301.627841 371.048421 
L 299.646307 371.048421 
z
" clip-path="url(#pa28d57b86a)" style="fill: #1f77b4"/>
   </g>
   <g id="patch_97">
    <path d="M 301.627841 384.48 
L 303.609375 384.48 
L 303.609375 367.574737 
L 301.627841 367.574737 
z
" clip-path="url(#pa28d57b86a)" style="fill: #1f77b4"/>
   </g>
   <g id="patch_98">
    <path d="M 303.609375 384.48 
L 305.590909 384.48 
L 305.590909 370.353684 
L 303.609375 370.353684 
z
" clip-path="url(#pa28d57b86a)" style="fill: #1f77b4"/>
   </g>
   <g id="patch_99">
    <path d="M 305.590909 384.48 
L 307.572443 384.48 
L 307.572443 371.28 
L 305.590909 371.28 
z
" clip-path="url(#pa28d57b86a)" style="fill: #1f77b4"/>
   </g>
   <g id="patch_100">
    <path d="M 307.572443 384.48 
L 309.553977 384.48 
L 309.553977 369.195789 
L 307.572443 369.195789 
z
" clip-path="url(#pa28d57b86a)" style="fill: #1f77b4"/>
   </g>
   <g id="patch_101">
    <path d="M 309.553977 384.48 
L 311.535511 384.48 
L 311.535511 368.269474 
L 309.553977 368.269474 
z
" clip-path="url(#pa28d57b86a)" style="fill: #1f77b4"/>
   </g>
   <g id="patch_102">
    <path d="M 311.535511 384.48 
L 313.517045 384.48 
L 313.517045 368.501053 
L 311.535511 368.501053 
z
" clip-path="url(#pa28d57b86a)" style="fill: #1f77b4"/>
   </g>
   <g id="patch_103">
    <path d="M 313.517045 384.48 
L 315.49858 384.48 
L 315.49858 368.037895 
L 313.517045 368.037895 
z
" clip-path="url(#pa28d57b86a)" style="fill: #1f77b4"/>
   </g>
   <g id="patch_104">
    <path d="M 315.49858 384.48 
L 317.480114 384.48 
L 317.480114 371.048421 
L 315.49858 371.048421 
z
" clip-path="url(#pa28d57b86a)" style="fill: #1f77b4"/>
   </g>
   <g id="patch_105">
    <path d="M 317.480114 384.48 
L 319.461648 384.48 
L 319.461648 369.658947 
L 317.480114 369.658947 
z
" clip-path="url(#pa28d57b86a)" style="fill: #1f77b4"/>
   </g>
   <g id="patch_106">
    <path d="M 319.461648 384.48 
L 321.443182 384.48 
L 321.443182 364.101053 
L 319.461648 364.101053 
z
" clip-path="url(#pa28d57b86a)" style="fill: #1f77b4"/>
   </g>
   <g id="patch_107">
    <path d="M 321.443182 384.48 
L 323.424716 384.48 
L 323.424716 365.953684 
L 321.443182 365.953684 
z
" clip-path="url(#pa28d57b86a)" style="fill: #1f77b4"/>
   </g>
   <g id="patch_108">
    <path d="M 323.424716 384.48 
L 325.40625 384.48 
L 325.40625 363.174737 
L 323.424716 363.174737 
z
" clip-path="url(#pa28d57b86a)" style="fill: #1f77b4"/>
   </g>
   <g id="patch_109">
    <path d="M 325.40625 384.48 
L 327.387784 384.48 
L 327.387784 368.964211 
L 325.40625 368.964211 
z
" clip-path="url(#pa28d57b86a)" style="fill: #1f77b4"/>
   </g>
   <g id="patch_110">
    <path d="M 327.387784 384.48 
L 329.369318 384.48 
L 329.369318 365.722105 
L 327.387784 365.722105 
z
" clip-path="url(#pa28d57b86a)" style="fill: #1f77b4"/>
   </g>
   <g id="patch_111">
    <path d="M 329.369318 384.48 
L 331.350852 384.48 
L 331.350852 365.953684 
L 329.369318 365.953684 
z
" clip-path="url(#pa28d57b86a)" style="fill: #1f77b4"/>
   </g>
   <g id="patch_112">
    <path d="M 331.350852 384.48 
L 333.332386 384.48 
L 333.332386 369.195789 
L 331.350852 369.195789 
z
" clip-path="url(#pa28d57b86a)" style="fill: #1f77b4"/>
   </g>
   <g id="patch_113">
    <path d="M 333.332386 384.48 
L 335.31392 384.48 
L 335.31392 367.806316 
L 333.332386 367.806316 
z
" clip-path="url(#pa28d57b86a)" style="fill: #1f77b4"/>
   </g>
   <g id="patch_114">
    <path d="M 335.31392 384.48 
L 337.295455 384.48 
L 337.295455 366.648421 
L 335.31392 366.648421 
z
" clip-path="url(#pa28d57b86a)" style="fill: #1f77b4"/>
   </g>
   <g id="patch_115">
    <path d="M 337.295455 384.48 
L 339.276989 384.48 
L 339.276989 362.711579 
L 337.295455 362.711579 
z
" clip-path="url(#pa28d57b86a)" style="fill: #1f77b4"/>
   </g>
   <g id="patch_116">
    <path d="M 339.276989 384.48 
L 341.258523 384.48 
L 341.258523 364.332632 
L 339.276989 364.332632 
z
" clip-path="url(#pa28d57b86a)" style="fill: #1f77b4"/>
   </g>
   <g id="patch_117">
    <path d="M 341.258523 384.48 
L 343.240057 384.48 
L 343.240057 364.332632 
L 341.258523 364.332632 
z
" clip-path="url(#pa28d57b86a)" style="fill: #1f77b4"/>
   </g>
   <g id="patch_118">
    <path d="M 343.240057 384.48 
L 345.221591 384.48 
L 345.221591 364.564211 
L 343.240057 364.564211 
z
" clip-path="url(#pa28d57b86a)" style="fill: #1f77b4"/>
   </g>
   <g id="patch_119">
    <path d="M 345.221591 384.48 
L 347.203125 384.48 
L 347.203125 365.258947 
L 345.221591 365.258947 
z
" clip-path="url(#pa28d57b86a)" style="fill: #1f77b4"/>
   </g>
   <g id="patch_120">
    <path d="M 347.203125 384.48 
L 349.184659 384.48 
L 349.184659 366.88 
L 347.203125 366.88 
z
" clip-path="url(#pa28d57b86a)" style="fill: #1f77b4"/>
   </g>
   <g id="patch_121">
    <path d="M 349.184659 384.48 
L 351.166193 384.48 
L 351.166193 360.395789 
L 349.184659 360.395789 
z
" clip-path="url(#pa28d57b86a)" style="fill: #1f77b4"/>
   </g>
   <g id="patch_122">
    <path d="M 351.166193 384.48 
L 353.147727 384.48 
L 353.147727 364.795789 
L 351.166193 364.795789 
z
" clip-path="url(#pa28d57b86a)" style="fill: #1f77b4"/>
   </g>
   <g id="patch_123">
    <path d="M 353.147727 384.48 
L 355.129261 384.48 
L 355.129261 364.564211 
L 353.147727 364.564211 
z
" clip-path="url(#pa28d57b86a)" style="fill: #1f77b4"/>
   </g>
   <g id="patch_124">
    <path d="M 355.129261 384.48 
L 357.110795 384.48 
L 357.110795 362.48 
L 355.129261 362.48 
z
" clip-path="url(#pa28d57b86a)" style="fill: #1f77b4"/>
   </g>
   <g id="patch_125">
    <path d="M 357.110795 384.48 
L 359.09233 384.48 
L 359.09233 362.248421 
L 357.110795 362.248421 
z
" clip-path="url(#pa28d57b86a)" style="fill: #1f77b4"/>
   </g>
   <g id="patch_126">
    <path d="M 359.09233 384.48 
L 361.073864 384.48 
L 361.073864 361.553684 
L 359.09233 361.553684 
z
" clip-path="url(#pa28d57b86a)" style="fill: #1f77b4"/>
   </g>
   <g id="patch_127">
    <path d="M 361.073864 384.48 
L 363.055398 384.48 
L 363.055398 361.553684 
L 361.073864 361.553684 
z
" clip-path="url(#pa28d57b86a)" style="fill: #1f77b4"/>
   </g>
   <g id="patch_128">
    <path d="M 363.055398 384.48 
L 365.036932 384.48 
L 365.036932 361.785263 
L 363.055398 361.785263 
z
" clip-path="url(#pa28d57b86a)" style="fill: #1f77b4"/>
   </g>
   <g id="patch_129">
    <path d="M 365.036932 384.48 
L 367.018466 384.48 
L 367.018466 361.553684 
L 365.036932 361.553684 
z
" clip-path="url(#pa28d57b86a)" style="fill: #1f77b4"/>
   </g>
   <g id="patch_130">
    <path d="M 367.018466 384.48 
L 369 384.48 
L 369 362.711579 
L 367.018466 362.711579 
z
" clip-path="url(#pa28d57b86a)" style="fill: #1f77b4"/>
   </g>
   <g id="patch_131">
    <path d="M 369 384.48 
L 370.981534 384.48 
L 370.981534 362.943158 
L 369 362.943158 
z
" clip-path="url(#pa28d57b86a)" style="fill: #1f77b4"/>
   </g>
   <g id="patch_132">
    <path d="M 370.981534 384.48 
L 372.963068 384.48 
L 372.963068 362.248421 
L 370.981534 362.248421 
z
" clip-path="url(#pa28d57b86a)" style="fill: #1f77b4"/>
   </g>
   <g id="patch_133">
    <path d="M 372.963068 384.48 
L 374.944602 384.48 
L 374.944602 358.08 
L 372.963068 358.08 
z
" clip-path="url(#pa28d57b86a)" style="fill: #1f77b4"/>
   </g>
   <g id="patch_134">
    <path d="M 374.944602 384.48 
L 376.926136 384.48 
L 376.926136 361.553684 
L 374.944602 361.553684 
z
" clip-path="url(#pa28d57b86a)" style="fill: #1f77b4"/>
   </g>
   <g id="patch_135">
    <path d="M 376.926136 384.48 
L 378.90767 384.48 
L 378.90767 357.385263 
L 376.926136 357.385263 
z
" clip-path="url(#pa28d57b86a)" style="fill: #1f77b4"/>
   </g>
   <g id="patch_136">
    <path d="M 378.90767 384.48 
L 380.889205 384.48 
L 380.889205 362.016842 
L 378.90767 362.016842 
z
" clip-path="url(#pa28d57b86a)" style="fill: #1f77b4"/>
   </g>
   <g id="patch_137">
    <path d="M 380.889205 384.48 
L 382.870739 384.48 
L 382.870739 351.132632 
L 380.889205 351.132632 
z
" clip-path="url(#pa28d57b86a)" style="fill: #1f77b4"/>
   </g>
   <g id="patch_138">
    <path d="M 382.870739 384.48 
L 384.852273 384.48 
L 384.852273 357.848421 
L 382.870739 357.848421 
z
" clip-path="url(#pa28d57b86a)" style="fill: #1f77b4"/>
   </g>
   <g id="patch_139">
    <path d="M 384.852273 384.48 
L 386.833807 384.48 
L 386.833807 360.627368 
L 384.852273 360.627368 
z
" clip-path="url(#pa28d57b86a)" style="fill: #1f77b4"/>
   </g>
   <g id="patch_140">
    <path d="M 386.833807 384.48 
L 388.815341 384.48 
L 388.815341 357.848421 
L 386.833807 357.848421 
z
" clip-path="url(#pa28d57b86a)" style="fill: #1f77b4"/>
   </g>
   <g id="patch_141">
    <path d="M 388.815341 384.48 
L 390.796875 384.48 
L 390.796875 350.901053 
L 388.815341 350.901053 
z
" clip-path="url(#pa28d57b86a)" style="fill: #1f77b4"/>
   </g>
   <g id="patch_142">
    <path d="M 390.796875 384.48 
L 392.778409 384.48 
L 392.778409 362.48 
L 390.796875 362.48 
z
" clip-path="url(#pa28d57b86a)" style="fill: #1f77b4"/>
   </g>
   <g id="patch_143">
    <path d="M 392.778409 384.48 
L 394.759943 384.48 
L 394.759943 354.606316 
L 392.778409 354.606316 
z
" clip-path="url(#pa28d57b86a)" style="fill: #1f77b4"/>
   </g>
   <g id="patch_144">
    <path d="M 394.759943 384.48 
L 396.741477 384.48 
L 396.741477 356.458947 
L 394.759943 356.458947 
z
" clip-path="url(#pa28d57b86a)" style="fill: #1f77b4"/>
   </g>
   <g id="patch_145">
    <path d="M 396.741477 384.48 
L 398.723011 384.48 
L 398.723011 352.058947 
L 396.741477 352.058947 
z
" clip-path="url(#pa28d57b86a)" style="fill: #1f77b4"/>
   </g>
   <g id="patch_146">
    <path d="M 398.723011 384.48 
L 400.704545 384.48 
L 400.704545 353.911579 
L 398.723011 353.911579 
z
" clip-path="url(#pa28d57b86a)" style="fill: #1f77b4"/>
   </g>
   <g id="patch_147">
    <path d="M 400.704545 384.48 
L 402.68608 384.48 
L 402.68608 357.616842 
L 400.704545 357.616842 
z
" clip-path="url(#pa28d57b86a)" style="fill: #1f77b4"/>
   </g>
   <g id="patch_148">
    <path d="M 402.68608 384.48 
L 404.667614 384.48 
L 404.667614 355.532632 
L 402.68608 355.532632 
z
" clip-path="url(#pa28d57b86a)" style="fill: #1f77b4"/>
   </g>
   <g id="patch_149">
    <path d="M 404.667614 384.48 
L 406.649148 384.48 
L 406.649148 352.522105 
L 404.667614 352.522105 
z
" clip-path="url(#pa28d57b86a)" style="fill: #1f77b4"/>
   </g>
   <g id="patch_150">
    <path d="M 406.649148 384.48 
L 408.630682 384.48 
L 408.630682 355.069474 
L 406.649148 355.069474 
z
" clip-path="url(#pa28d57b86a)" style="fill: #1f77b4"/>
   </g>
   <g id="patch_151">
    <path d="M 408.630682 384.48 
L 410.612216 384.48 
L 410.612216 357.616842 
L 408.630682 357.616842 
z
" clip-path="url(#pa28d57b86a)" style="fill: #1f77b4"/>
   </g>
   <g id="patch_152">
    <path d="M 410.612216 384.48 
L 412.59375 384.48 
L 412.59375 361.322105 
L 410.612216 361.322105 
z
" clip-path="url(#pa28d57b86a)" style="fill: #1f77b4"/>
   </g>
   <g id="patch_153">
    <path d="M 412.59375 384.48 
L 414.575284 384.48 
L 414.575284 359.237895 
L 412.59375 359.237895 
z
" clip-path="url(#pa28d57b86a)" style="fill: #1f77b4"/>
   </g>
   <g id="patch_154">
    <path d="M 414.575284 384.48 
L 416.556818 384.48 
L 416.556818 358.311579 
L 414.575284 358.311579 
z
" clip-path="url(#pa28d57b86a)" style="fill: #1f77b4"/>
   </g>
   <g id="patch_155">
    <path d="M 416.556818 384.48 
L 418.538352 384.48 
L 418.538352 356.458947 
L 416.556818 356.458947 
z
" clip-path="url(#pa28d57b86a)" style="fill: #1f77b4"/>
   </g>
   <g id="patch_156">
    <path d="M 418.538352 384.48 
L 420.519886 384.48 
L 420.519886 353.911579 
L 418.538352 353.911579 
z
" clip-path="url(#pa28d57b86a)" style="fill: #1f77b4"/>
   </g>
   <g id="patch_157">
    <path d="M 420.519886 384.48 
L 422.50142 384.48 
L 422.50142 352.753684 
L 420.519886 352.753684 
z
" clip-path="url(#pa28d57b86a)" style="fill: #1f77b4"/>
   </g>
   <g id="patch_158">
    <path d="M 422.50142 384.48 
L 424.482955 384.48 
L 424.482955 353.448421 
L 422.50142 353.448421 
z
" clip-path="url(#pa28d57b86a)" style="fill: #1f77b4"/>
   </g>
   <g id="patch_159">
    <path d="M 424.482955 384.48 
L 426.464489 384.48 
L 426.464489 357.385263 
L 424.482955 357.385263 
z
" clip-path="url(#pa28d57b86a)" style="fill: #1f77b4"/>
   </g>
   <g id="patch_160">
    <path d="M 426.464489 384.48 
L 428.446023 384.48 
L 428.446023 354.374737 
L 426.464489 354.374737 
z
" clip-path="url(#pa28d57b86a)" style="fill: #1f77b4"/>
   </g>
   <g id="patch_161">
    <path d="M 428.446023 384.48 
L 430.427557 384.48 
L 430.427557 358.08 
L 428.446023 358.08 
z
" clip-path="url(#pa28d57b86a)" style="fill: #1f77b4"/>
   </g>
   <g id="patch_162">
    <path d="M 430.427557 384.48 
L 432.409091 384.48 
L 432.409091 357.616842 
L 430.427557 357.616842 
z
" clip-path="url(#pa28d57b86a)" style="fill: #1f77b4"/>
   </g>
   <g id="patch_163">
    <path d="M 432.409091 384.48 
L 434.390625 384.48 
L 434.390625 357.848421 
L 432.409091 357.848421 
z
" clip-path="url(#pa28d57b86a)" style="fill: #1f77b4"/>
   </g>
   <g id="patch_164">
    <path d="M 434.390625 384.48 
L 436.372159 384.48 
L 436.372159 350.669474 
L 434.390625 350.669474 
z
" clip-path="url(#pa28d57b86a)" style="fill: #1f77b4"/>
   </g>
   <g id="patch_165">
    <path d="M 436.372159 384.48 
L 438.353693 384.48 
L 438.353693 352.058947 
L 436.372159 352.058947 
z
" clip-path="url(#pa28d57b86a)" style="fill: #1f77b4"/>
   </g>
   <g id="patch_166">
    <path d="M 438.353693 384.48 
L 440.335227 384.48 
L 440.335227 355.069474 
L 438.353693 355.069474 
z
" clip-path="url(#pa28d57b86a)" style="fill: #1f77b4"/>
   </g>
   <g id="patch_167">
    <path d="M 440.335227 384.48 
L 442.316761 384.48 
L 442.316761 351.827368 
L 440.335227 351.827368 
z
" clip-path="url(#pa28d57b86a)" style="fill: #1f77b4"/>
   </g>
   <g id="patch_168">
    <path d="M 442.316761 384.48 
L 444.298295 384.48 
L 444.298295 356.922105 
L 442.316761 356.922105 
z
" clip-path="url(#pa28d57b86a)" style="fill: #1f77b4"/>
   </g>
   <g id="patch_169">
    <path d="M 444.298295 384.48 
L 446.27983 384.48 
L 446.27983 352.058947 
L 444.298295 352.058947 
z
" clip-path="url(#pa28d57b86a)" style="fill: #1f77b4"/>
   </g>
   <g id="patch_170">
    <path d="M 446.27983 384.48 
L 448.261364 384.48 
L 448.261364 350.901053 
L 446.27983 350.901053 
z
" clip-path="url(#pa28d57b86a)" style="fill: #1f77b4"/>
   </g>
   <g id="patch_171">
    <path d="M 448.261364 384.48 
L 450.242898 384.48 
L 450.242898 351.595789 
L 448.261364 351.595789 
z
" clip-path="url(#pa28d57b86a)" style="fill: #1f77b4"/>
   </g>
   <g id="patch_172">
    <path d="M 450.242898 384.48 
L 452.224432 384.48 
L 452.224432 353.216842 
L 450.242898 353.216842 
z
" clip-path="url(#pa28d57b86a)" style="fill: #1f77b4"/>
   </g>
   <g id="patch_173">
    <path d="M 452.224432 384.48 
L 454.205966 384.48 
L 454.205966 349.511579 
L 452.224432 349.511579 
z
" clip-path="url(#pa28d57b86a)" style="fill: #1f77b4"/>
   </g>
   <g id="patch_174">
    <path d="M 454.205966 384.48 
L 456.1875 384.48 
L 456.1875 349.743158 
L 454.205966 349.743158 
z
" clip-path="url(#pa28d57b86a)" style="fill: #1f77b4"/>
   </g>
   <g id="patch_175">
    <path d="M 456.1875 384.48 
L 458.169034 384.48 
L 458.169034 351.132632 
L 456.1875 351.132632 
z
" clip-path="url(#pa28d57b86a)" style="fill: #1f77b4"/>
   </g>
   <g id="patch_176">
    <path d="M 458.169034 384.48 
L 460.150568 384.48 
L 460.150568 352.985263 
L 458.169034 352.985263 
z
" clip-path="url(#pa28d57b86a)" style="fill: #1f77b4"/>
   </g>
   <g id="patch_177">
    <path d="M 460.150568 384.48 
L 462.132102 384.48 
L 462.132102 349.511579 
L 460.150568 349.511579 
z
" clip-path="url(#pa28d57b86a)" style="fill: #1f77b4"/>
   </g>
   <g id="patch_178">
    <path d="M 462.132102 384.48 
L 464.113636 384.48 
L 464.113636 346.269474 
L 462.132102 346.269474 
z
" clip-path="url(#pa28d57b86a)" style="fill: #1f77b4"/>
   </g>
   <g id="patch_179">
    <path d="M 464.113636 384.48 
L 466.09517 384.48 
L 466.09517 349.28 
L 464.113636 349.28 
z
" clip-path="url(#pa28d57b86a)" style="fill: #1f77b4"/>
   </g>
   <g id="patch_180">
    <path d="M 466.09517 384.48 
L 468.076705 384.48 
L 468.076705 346.037895 
L 466.09517 346.037895 
z
" clip-path="url(#pa28d57b86a)" style="fill: #1f77b4"/>
   </g>
   <g id="patch_181">
    <path d="M 468.076705 384.48 
L 470.058239 384.48 
L 470.058239 344.185263 
L 468.076705 344.185263 
z
" clip-path="url(#pa28d57b86a)" style="fill: #1f77b4"/>
   </g>
   <g id="patch_182">
    <path d="M 470.058239 384.48 
L 472.039773 384.48 
L 472.039773 347.890526 
L 470.058239 347.890526 
z
" clip-path="url(#pa28d57b86a)" style="fill: #1f77b4"/>
   </g>
   <g id="patch_183">
    <path d="M 472.039773 384.48 
L 474.021307 384.48 
L 474.021307 337.932632 
L 472.039773 337.932632 
z
" clip-path="url(#pa28d57b86a)" style="fill: #1f77b4"/>
   </g>
   <g id="patch_184">
    <path d="M 474.021307 384.48 
L 476.002841 384.48 
L 476.002841 342.564211 
L 474.021307 342.564211 
z
" clip-path="url(#pa28d57b86a)" style="fill: #1f77b4"/>
   </g>
   <g id="patch_185">
    <path d="M 476.002841 384.48 
L 477.984375 384.48 
L 477.984375 342.795789 
L 476.002841 342.795789 
z
" clip-path="url(#pa28d57b86a)" style="fill: #1f77b4"/>
   </g>
   <g id="patch_186">
    <path d="M 477.984375 384.48 
L 479.965909 384.48 
L 479.965909 340.248421 
L 477.984375 340.248421 
z
" clip-path="url(#pa28d57b86a)" style="fill: #1f77b4"/>
   </g>
   <g id="patch_187">
    <path d="M 479.965909 384.48 
L 481.947443 384.48 
L 481.947443 336.08 
L 479.965909 336.08 
z
" clip-path="url(#pa28d57b86a)" style="fill: #1f77b4"/>
   </g>
   <g id="patch_188">
    <path d="M 481.947443 384.48 
L 483.928977 384.48 
L 483.928977 338.627368 
L 481.947443 338.627368 
z
" clip-path="url(#pa28d57b86a)" style="fill: #1f77b4"/>
   </g>
   <g id="patch_189">
    <path d="M 483.928977 384.48 
L 485.910511 384.48 
L 485.910511 339.785263 
L 483.928977 339.785263 
z
" clip-path="url(#pa28d57b86a)" style="fill: #1f77b4"/>
   </g>
   <g id="patch_190">
    <path d="M 485.910511 384.48 
L 487.892045 384.48 
L 487.892045 333.069474 
L 485.910511 333.069474 
z
" clip-path="url(#pa28d57b86a)" style="fill: #1f77b4"/>
   </g>
   <g id="patch_191">
    <path d="M 487.892045 384.48 
L 489.87358 384.48 
L 489.87358 332.143158 
L 487.892045 332.143158 
z
" clip-path="url(#pa28d57b86a)" style="fill: #1f77b4"/>
   </g>
   <g id="patch_192">
    <path d="M 489.87358 384.48 
L 491.855114 384.48 
L 491.855114 336.08 
L 489.87358 336.08 
z
" clip-path="url(#pa28d57b86a)" style="fill: #1f77b4"/>
   </g>
   <g id="patch_193">
    <path d="M 491.855114 384.48 
L 493.836648 384.48 
L 493.836648 335.153684 
L 491.855114 335.153684 
z
" clip-path="url(#pa28d57b86a)" style="fill: #1f77b4"/>
   </g>
   <g id="patch_194">
    <path d="M 493.836648 384.48 
L 495.818182 384.48 
L 495.818182 332.837895 
L 493.836648 332.837895 
z
" clip-path="url(#pa28d57b86a)" style="fill: #1f77b4"/>
   </g>
   <g id="patch_195">
    <path d="M 495.818182 384.48 
L 497.799716 384.48 
L 497.799716 337.006316 
L 495.818182 337.006316 
z
" clip-path="url(#pa28d57b86a)" style="fill: #1f77b4"/>
   </g>
   <g id="patch_196">
    <path d="M 497.799716 384.48 
L 499.78125 384.48 
L 499.78125 335.385263 
L 497.799716 335.385263 
z
" clip-path="url(#pa28d57b86a)" style="fill: #1f77b4"/>
   </g>
   <g id="patch_197">
    <path d="M 499.78125 384.48 
L 501.762784 384.48 
L 501.762784 339.785263 
L 499.78125 339.785263 
z
" clip-path="url(#pa28d57b86a)" style="fill: #1f77b4"/>
   </g>
   <g id="patch_198">
    <path d="M 501.762784 384.48 
L 503.744318 384.48 
L 503.744318 340.48 
L 501.762784 340.48 
z
" clip-path="url(#pa28d57b86a)" style="fill: #1f77b4"/>
   </g>
   <g id="patch_199">
    <path d="M 503.744318 384.48 
L 505.725852 384.48 
L 505.725852 336.08 
L 503.744318 336.08 
z
" clip-path="url(#pa28d57b86a)" style="fill: #1f77b4"/>
   </g>
   <g id="patch_200">
    <path d="M 505.725852 384.48 
L 507.707386 384.48 
L 507.707386 338.627368 
L 505.725852 338.627368 
z
" clip-path="url(#pa28d57b86a)" style="fill: #1f77b4"/>
   </g>
   <g id="patch_201">
    <path d="M 507.707386 384.48 
L 509.68892 384.48 
L 509.68892 343.027368 
L 507.707386 343.027368 
z
" clip-path="url(#pa28d57b86a)" style="fill: #1f77b4"/>
   </g>
   <g id="patch_202">
    <path d="M 509.68892 384.48 
L 511.670455 384.48 
L 511.670455 337.469474 
L 509.68892 337.469474 
z
" clip-path="url(#pa28d57b86a)" style="fill: #1f77b4"/>
   </g>
   <g id="patch_203">
    <path d="M 511.670455 384.48 
L 513.651989 384.48 
L 513.651989 345.343158 
L 511.670455 345.343158 
z
" clip-path="url(#pa28d57b86a)" style="fill: #1f77b4"/>
   </g>
   <g id="patch_204">
    <path d="M 513.651989 384.48 
L 515.633523 384.48 
L 515.633523 339.785263 
L 513.651989 339.785263 
z
" clip-path="url(#pa28d57b86a)" style="fill: #1f77b4"/>
   </g>
   <g id="patch_205">
    <path d="M 515.633523 384.48 
L 517.615057 384.48 
L 517.615057 335.616842 
L 515.633523 335.616842 
z
" clip-path="url(#pa28d57b86a)" style="fill: #1f77b4"/>
   </g>
   <g id="patch_206">
    <path d="M 517.615057 384.48 
L 519.596591 384.48 
L 519.596591 337.006316 
L 517.615057 337.006316 
z
" clip-path="url(#pa28d57b86a)" style="fill: #1f77b4"/>
   </g>
   <g id="patch_207">
    <path d="M 519.596591 384.48 
L 521.578125 384.48 
L 521.578125 335.385263 
L 519.596591 335.385263 
z
" clip-path="url(#pa28d57b86a)" style="fill: #1f77b4"/>
   </g>
   <g id="patch_208">
    <path d="M 521.578125 384.48 
L 523.559659 384.48 
L 523.559659 335.153684 
L 521.578125 335.153684 
z
" clip-path="url(#pa28d57b86a)" style="fill: #1f77b4"/>
   </g>
   <g id="patch_209">
    <path d="M 523.559659 384.48 
L 525.541193 384.48 
L 525.541193 340.248421 
L 523.559659 340.248421 
z
" clip-path="url(#pa28d57b86a)" style="fill: #1f77b4"/>
   </g>
   <g id="patch_210">
    <path d="M 525.541193 384.48 
L 527.522727 384.48 
L 527.522727 338.395789 
L 525.541193 338.395789 
z
" clip-path="url(#pa28d57b86a)" style="fill: #1f77b4"/>
   </g>
   <g id="patch_211">
    <path d="M 527.522727 384.48 
L 529.504261 384.48 
L 529.504261 334.458947 
L 527.522727 334.458947 
z
" clip-path="url(#pa28d57b86a)" style="fill: #1f77b4"/>
   </g>
   <g id="patch_212">
    <path d="M 529.504261 384.48 
L 531.485795 384.48 
L 531.485795 327.048421 
L 529.504261 327.048421 
z
" clip-path="url(#pa28d57b86a)" style="fill: #1f77b4"/>
   </g>
   <g id="patch_213">
    <path d="M 531.485795 384.48 
L 533.46733 384.48 
L 533.46733 334.227368 
L 531.485795 334.227368 
z
" clip-path="url(#pa28d57b86a)" style="fill: #1f77b4"/>
   </g>
   <g id="patch_214">
    <path d="M 533.46733 384.48 
L 535.448864 384.48 
L 535.448864 333.995789 
L 533.46733 333.995789 
z
" clip-path="url(#pa28d57b86a)" style="fill: #1f77b4"/>
   </g>
   <g id="patch_215">
    <path d="M 535.448864 384.48 
L 537.430398 384.48 
L 537.430398 337.701053 
L 535.448864 337.701053 
z
" clip-path="url(#pa28d57b86a)" style="fill: #1f77b4"/>
   </g>
   <g id="patch_216">
    <path d="M 537.430398 384.48 
L 539.411932 384.48 
L 539.411932 332.374737 
L 537.430398 332.374737 
z
" clip-path="url(#pa28d57b86a)" style="fill: #1f77b4"/>
   </g>
   <g id="patch_217">
    <path d="M 539.411932 384.48 
L 541.393466 384.48 
L 541.393466 326.122105 
L 539.411932 326.122105 
z
" clip-path="url(#pa28d57b86a)" style="fill: #1f77b4"/>
   </g>
   <g id="patch_218">
    <path d="M 541.393466 384.48 
L 543.375 384.48 
L 543.375 329.827368 
L 541.393466 329.827368 
z
" clip-path="url(#pa28d57b86a)" style="fill: #1f77b4"/>
   </g>
   <g id="patch_219">
    <path d="M 543.375 384.48 
L 545.356534 384.48 
L 545.356534 336.311579 
L 543.375 336.311579 
z
" clip-path="url(#pa28d57b86a)" style="fill: #1f77b4"/>
   </g>
   <g id="patch_220">
    <path d="M 545.356534 384.48 
L 547.338068 384.48 
L 547.338068 339.553684 
L 545.356534 339.553684 
z
" clip-path="url(#pa28d57b86a)" style="fill: #1f77b4"/>
   </g>
   <g id="patch_221">
    <path d="M 547.338068 384.48 
L 549.319602 384.48 
L 549.319602 346.037895 
L 547.338068 346.037895 
z
" clip-path="url(#pa28d57b86a)" style="fill: #1f77b4"/>
   </g>
   <g id="patch_222">
    <path d="M 549.319602 384.48 
L 551.301136 384.48 
L 551.301136 338.627368 
L 549.319602 338.627368 
z
" clip-path="url(#pa28d57b86a)" style="fill: #1f77b4"/>
   </g>
   <g id="patch_223">
    <path d="M 551.301136 384.48 
L 553.28267 384.48 
L 553.28267 349.28 
L 551.301136 349.28 
z
" clip-path="url(#pa28d57b86a)" style="fill: #1f77b4"/>
   </g>
   <g id="patch_224">
    <path d="M 553.28267 384.48 
L 555.264205 384.48 
L 555.264205 343.953684 
L 553.28267 343.953684 
z
" clip-path="url(#pa28d57b86a)" style="fill: #1f77b4"/>
   </g>
   <g id="patch_225">
    <path d="M 555.264205 384.48 
L 557.245739 384.48 
L 557.245739 348.816842 
L 555.264205 348.816842 
z
" clip-path="url(#pa28d57b86a)" style="fill: #1f77b4"/>
   </g>
   <g id="patch_226">
    <path d="M 557.245739 384.48 
L 559.227273 384.48 
L 559.227273 356.227368 
L 557.245739 356.227368 
z
" clip-path="url(#pa28d57b86a)" style="fill: #1f77b4"/>
   </g>
   <g id="patch_227">
    <path d="M 559.227273 384.48 
L 561.208807 384.48 
L 561.208807 355.069474 
L 559.227273 355.069474 
z
" clip-path="url(#pa28d57b86a)" style="fill: #1f77b4"/>
   </g>
   <g id="patch_228">
    <path d="M 561.208807 384.48 
L 563.190341 384.48 
L 563.190341 353.448421 
L 561.208807 353.448421 
z
" clip-path="url(#pa28d57b86a)" style="fill: #1f77b4"/>
   </g>
   <g id="patch_229">
    <path d="M 563.190341 384.48 
L 565.171875 384.48 
L 565.171875 359.932632 
L 563.190341 359.932632 
z
" clip-path="url(#pa28d57b86a)" style="fill: #1f77b4"/>
   </g>
   <g id="patch_230">
    <path d="M 565.171875 384.48 
L 567.153409 384.48 
L 567.153409 365.953684 
L 565.171875 365.953684 
z
" clip-path="url(#pa28d57b86a)" style="fill: #1f77b4"/>
   </g>
   <g id="patch_231">
    <path d="M 567.153409 384.48 
L 569.134943 384.48 
L 569.134943 361.090526 
L 567.153409 361.090526 
z
" clip-path="url(#pa28d57b86a)" style="fill: #1f77b4"/>
   </g>
   <g id="patch_232">
    <path d="M 569.134943 384.48 
L 571.116477 384.48 
L 571.116477 367.111579 
L 569.134943 367.111579 
z
" clip-path="url(#pa28d57b86a)" style="fill: #1f77b4"/>
   </g>
   <g id="patch_233">
    <path d="M 571.116477 384.48 
L 573.098011 384.48 
L 573.098011 365.258947 
L 571.116477 365.258947 
z
" clip-path="url(#pa28d57b86a)" style="fill: #1f77b4"/>
   </g>
   <g id="patch_234">
    <path d="M 573.098011 384.48 
L 575.079545 384.48 
L 575.079545 366.416842 
L 573.098011 366.416842 
z
" clip-path="url(#pa28d57b86a)" style="fill: #1f77b4"/>
   </g>
   <g id="patch_235">
    <path d="M 575.079545 384.48 
L 577.06108 384.48 
L 577.06108 364.332632 
L 575.079545 364.332632 
z
" clip-path="url(#pa28d57b86a)" style="fill: #1f77b4"/>
   </g>
   <g id="patch_236">
    <path d="M 577.06108 384.48 
L 579.042614 384.48 
L 579.042614 366.88 
L 577.06108 366.88 
z
" clip-path="url(#pa28d57b86a)" style="fill: #1f77b4"/>
   </g>
   <g id="patch_237">
    <path d="M 579.042614 384.48 
L 581.024148 384.48 
L 581.024148 371.048421 
L 579.042614 371.048421 
z
" clip-path="url(#pa28d57b86a)" style="fill: #1f77b4"/>
   </g>
   <g id="patch_238">
    <path d="M 581.024148 384.48 
L 583.005682 384.48 
L 583.005682 369.658947 
L 581.024148 369.658947 
z
" clip-path="url(#pa28d57b86a)" style="fill: #1f77b4"/>
   </g>
   <g id="patch_239">
    <path d="M 583.005682 384.48 
L 584.987216 384.48 
L 584.987216 372.669474 
L 583.005682 372.669474 
z
" clip-path="url(#pa28d57b86a)" style="fill: #1f77b4"/>
   </g>
   <g id="patch_240">
    <path d="M 584.987216 384.48 
L 586.96875 384.48 
L 586.96875 371.974737 
L 584.987216 371.974737 
z
" clip-path="url(#pa28d57b86a)" style="fill: #1f77b4"/>
   </g>
   <g id="patch_241">
    <path d="M 586.96875 384.48 
L 588.950284 384.48 
L 588.950284 374.290526 
L 586.96875 374.290526 
z
" clip-path="url(#pa28d57b86a)" style="fill: #1f77b4"/>
   </g>
   <g id="patch_242">
    <path d="M 588.950284 384.48 
L 590.931818 384.48 
L 590.931818 374.058947 
L 588.950284 374.058947 
z
" clip-path="url(#pa28d57b86a)" style="fill: #1f77b4"/>
   </g>
   <g id="patch_243">
    <path d="M 590.931818 384.48 
L 592.913352 384.48 
L 592.913352 371.048421 
L 590.931818 371.048421 
z
" clip-path="url(#pa28d57b86a)" style="fill: #1f77b4"/>
   </g>
   <g id="patch_244">
    <path d="M 592.913352 384.48 
L 594.894886 384.48 
L 594.894886 376.143158 
L 592.913352 376.143158 
z
" clip-path="url(#pa28d57b86a)" style="fill: #1f77b4"/>
   </g>
   <g id="patch_245">
    <path d="M 594.894886 384.48 
L 596.87642 384.48 
L 596.87642 374.522105 
L 594.894886 374.522105 
z
" clip-path="url(#pa28d57b86a)" style="fill: #1f77b4"/>
   </g>
   <g id="patch_246">
    <path d="M 596.87642 384.48 
L 598.857955 384.48 
L 598.857955 372.669474 
L 596.87642 372.669474 
z
" clip-path="url(#pa28d57b86a)" style="fill: #1f77b4"/>
   </g>
   <g id="patch_247">
    <path d="M 598.857955 384.48 
L 600.839489 384.48 
L 600.839489 373.595789 
L 598.857955 373.595789 
z
" clip-path="url(#pa28d57b86a)" style="fill: #1f77b4"/>
   </g>
   <g id="patch_248">
    <path d="M 600.839489 384.48 
L 602.821023 384.48 
L 602.821023 376.606316 
L 600.839489 376.606316 
z
" clip-path="url(#pa28d57b86a)" style="fill: #1f77b4"/>
   </g>
   <g id="patch_249">
    <path d="M 602.821023 384.48 
L 604.802557 384.48 
L 604.802557 374.985263 
L 602.821023 374.985263 
z
" clip-path="url(#pa28d57b86a)" style="fill: #1f77b4"/>
   </g>
   <g id="patch_250">
    <path d="M 604.802557 384.48 
L 606.784091 384.48 
L 606.784091 373.827368 
L 604.802557 373.827368 
z
" clip-path="url(#pa28d57b86a)" style="fill: #1f77b4"/>
   </g>
   <g id="patch_251">
    <path d="M 606.784091 384.48 
L 608.765625 384.48 
L 608.765625 378.227368 
L 606.784091 378.227368 
z
" clip-path="url(#pa28d57b86a)" style="fill: #1f77b4"/>
   </g>
   <g id="patch_252">
    <path d="M 608.765625 384.48 
L 610.747159 384.48 
L 610.747159 378.690526 
L 608.765625 378.690526 
z
" clip-path="url(#pa28d57b86a)" style="fill: #1f77b4"/>
   </g>
   <g id="patch_253">
    <path d="M 610.747159 384.48 
L 612.728693 384.48 
L 612.728693 377.764211 
L 610.747159 377.764211 
z
" clip-path="url(#pa28d57b86a)" style="fill: #1f77b4"/>
   </g>
   <g id="patch_254">
    <path d="M 612.728693 384.48 
L 614.710227 384.48 
L 614.710227 379.616842 
L 612.728693 379.616842 
z
" clip-path="url(#pa28d57b86a)" style="fill: #1f77b4"/>
   </g>
   <g id="patch_255">
    <path d="M 614.710227 384.48 
L 616.691761 384.48 
L 616.691761 381.701053 
L 614.710227 381.701053 
z
" clip-path="url(#pa28d57b86a)" style="fill: #1f77b4"/>
   </g>
   <g id="patch_256">
    <path d="M 616.691761 384.48 
L 618.673295 384.48 
L 618.673295 382.858947 
L 616.691761 382.858947 
z
" clip-path="url(#pa28d57b86a)" style="fill: #1f77b4"/>
   </g>
   <g id="patch_257">
    <path d="M 618.673295 384.48 
L 620.65483 384.48 
L 620.65483 381.932632 
L 618.673295 381.932632 
z
" clip-path="url(#pa28d57b86a)" style="fill: #1f77b4"/>
   </g>
   <g id="patch_258">
    <path d="M 620.65483 384.48 
L 622.636364 384.48 
L 622.636364 375.216842 
L 620.65483 375.216842 
z
" clip-path="url(#pa28d57b86a)" style="fill: #1f77b4"/>
   </g>
   <g id="matplotlib.axis_1">
    <g id="xtick_1">
     <g id="line2d_1">
      <defs>
       <path id="m3f71940dd3" d="M 0 0 
L 0 3.5 
" style="stroke: #000000; stroke-width: 0.8"/>
      </defs>
      <g>
       <use xlink:href="#m3f71940dd3" x="115.363636" y="384.48" style="stroke: #000000; stroke-width: 0.8"/>
      </g>
     </g>
     <g id="text_1">
      <!-- 0 -->
      <g transform="translate(112.182386 399.078438) scale(0.1 -0.1)">
       <defs>
        <path id="DejaVuSans-30" d="M 2034 4250 
Q 1547 4250 1301 3770 
Q 1056 3291 1056 2328 
Q 1056 1369 1301 889 
Q 1547 409 2034 409 
Q 2525 409 2770 889 
Q 3016 1369 3016 2328 
Q 3016 3291 2770 3770 
Q 2525 4250 2034 4250 
z
M 2034 4750 
Q 2819 4750 3233 4129 
Q 3647 3509 3647 2328 
Q 3647 1150 3233 529 
Q 2819 -91 2034 -91 
Q 1250 -91 836 529 
Q 422 1150 422 2328 
Q 422 3509 836 4129 
Q 1250 4750 2034 4750 
z
" transform="scale(0.015625)"/>
       </defs>
       <use xlink:href="#DejaVuSans-30"/>
      </g>
     </g>
    </g>
    <g id="xtick_2">
     <g id="line2d_2">
      <g>
       <use xlink:href="#m3f71940dd3" x="214.828877" y="384.48" style="stroke: #000000; stroke-width: 0.8"/>
      </g>
     </g>
     <g id="text_2">
      <!-- 50 -->
      <g transform="translate(208.466377 399.078438) scale(0.1 -0.1)">
       <defs>
        <path id="DejaVuSans-35" d="M 691 4666 
L 3169 4666 
L 3169 4134 
L 1269 4134 
L 1269 2991 
Q 1406 3038 1543 3061 
Q 1681 3084 1819 3084 
Q 2600 3084 3056 2656 
Q 3513 2228 3513 1497 
Q 3513 744 3044 326 
Q 2575 -91 1722 -91 
Q 1428 -91 1123 -41 
Q 819 9 494 109 
L 494 744 
Q 775 591 1075 516 
Q 1375 441 1709 441 
Q 2250 441 2565 725 
Q 2881 1009 2881 1497 
Q 2881 1984 2565 2268 
Q 2250 2553 1709 2553 
Q 1456 2553 1204 2497 
Q 953 2441 691 2322 
L 691 4666 
z
" transform="scale(0.015625)"/>
       </defs>
       <use xlink:href="#DejaVuSans-35"/>
       <use xlink:href="#DejaVuSans-30" x="63.623047"/>
      </g>
     </g>
    </g>
    <g id="xtick_3">
     <g id="line2d_3">
      <g>
       <use xlink:href="#m3f71940dd3" x="314.294118" y="384.48" style="stroke: #000000; stroke-width: 0.8"/>
      </g>
     </g>
     <g id="text_3">
      <!-- 100 -->
      <g transform="translate(304.750368 399.078438) scale(0.1 -0.1)">
       <defs>
        <path id="DejaVuSans-31" d="M 794 531 
L 1825 531 
L 1825 4091 
L 703 3866 
L 703 4441 
L 1819 4666 
L 2450 4666 
L 2450 531 
L 3481 531 
L 3481 0 
L 794 0 
L 794 531 
z
" transform="scale(0.015625)"/>
       </defs>
       <use xlink:href="#DejaVuSans-31"/>
       <use xlink:href="#DejaVuSans-30" x="63.623047"/>
       <use xlink:href="#DejaVuSans-30" x="127.246094"/>
      </g>
     </g>
    </g>
    <g id="xtick_4">
     <g id="line2d_4">
      <g>
       <use xlink:href="#m3f71940dd3" x="413.759358" y="384.48" style="stroke: #000000; stroke-width: 0.8"/>
      </g>
     </g>
     <g id="text_4">
      <!-- 150 -->
      <g transform="translate(404.215608 399.078438) scale(0.1 -0.1)">
       <use xlink:href="#DejaVuSans-31"/>
       <use xlink:href="#DejaVuSans-35" x="63.623047"/>
       <use xlink:href="#DejaVuSans-30" x="127.246094"/>
      </g>
     </g>
    </g>
    <g id="xtick_5">
     <g id="line2d_5">
      <g>
       <use xlink:href="#m3f71940dd3" x="513.224599" y="384.48" style="stroke: #000000; stroke-width: 0.8"/>
      </g>
     </g>
     <g id="text_5">
      <!-- 200 -->
      <g transform="translate(503.680849 399.078438) scale(0.1 -0.1)">
       <defs>
        <path id="DejaVuSans-32" d="M 1228 531 
L 3431 531 
L 3431 0 
L 469 0 
L 469 531 
Q 828 903 1448 1529 
Q 2069 2156 2228 2338 
Q 2531 2678 2651 2914 
Q 2772 3150 2772 3378 
Q 2772 3750 2511 3984 
Q 2250 4219 1831 4219 
Q 1534 4219 1204 4116 
Q 875 4013 500 3803 
L 500 4441 
Q 881 4594 1212 4672 
Q 1544 4750 1819 4750 
Q 2544 4750 2975 4387 
Q 3406 4025 3406 3419 
Q 3406 3131 3298 2873 
Q 3191 2616 2906 2266 
Q 2828 2175 2409 1742 
Q 1991 1309 1228 531 
z
" transform="scale(0.015625)"/>
       </defs>
       <use xlink:href="#DejaVuSans-32"/>
       <use xlink:href="#DejaVuSans-30" x="63.623047"/>
       <use xlink:href="#DejaVuSans-30" x="127.246094"/>
      </g>
     </g>
    </g>
    <g id="xtick_6">
     <g id="line2d_6">
      <g>
       <use xlink:href="#m3f71940dd3" x="612.68984" y="384.48" style="stroke: #000000; stroke-width: 0.8"/>
      </g>
     </g>
     <g id="text_6">
      <!-- 250 -->
      <g transform="translate(603.14609 399.078438) scale(0.1 -0.1)">
       <use xlink:href="#DejaVuSans-32"/>
       <use xlink:href="#DejaVuSans-35" x="63.623047"/>
       <use xlink:href="#DejaVuSans-30" x="127.246094"/>
      </g>
     </g>
    </g>
    <g id="text_7">
     <!-- Pixel Intensity(0-255) -->
     <g transform="translate(283.6525 417.315625) scale(0.16 -0.16)">
      <defs>
       <path id="DejaVuSans-50" d="M 1259 4147 
L 1259 2394 
L 2053 2394 
Q 2494 2394 2734 2622 
Q 2975 2850 2975 3272 
Q 2975 3691 2734 3919 
Q 2494 4147 2053 4147 
L 1259 4147 
z
M 628 4666 
L 2053 4666 
Q 2838 4666 3239 4311 
Q 3641 3956 3641 3272 
Q 3641 2581 3239 2228 
Q 2838 1875 2053 1875 
L 1259 1875 
L 1259 0 
L 628 0 
L 628 4666 
z
" transform="scale(0.015625)"/>
       <path id="DejaVuSans-69" d="M 603 3500 
L 1178 3500 
L 1178 0 
L 603 0 
L 603 3500 
z
M 603 4863 
L 1178 4863 
L 1178 4134 
L 603 4134 
L 603 4863 
z
" transform="scale(0.015625)"/>
       <path id="DejaVuSans-78" d="M 3513 3500 
L 2247 1797 
L 3578 0 
L 2900 0 
L 1881 1375 
L 863 0 
L 184 0 
L 1544 1831 
L 300 3500 
L 978 3500 
L 1906 2253 
L 2834 3500 
L 3513 3500 
z
" transform="scale(0.015625)"/>
       <path id="DejaVuSans-65" d="M 3597 1894 
L 3597 1613 
L 953 1613 
Q 991 1019 1311 708 
Q 1631 397 2203 397 
Q 2534 397 2845 478 
Q 3156 559 3463 722 
L 3463 178 
Q 3153 47 2828 -22 
Q 2503 -91 2169 -91 
Q 1331 -91 842 396 
Q 353 884 353 1716 
Q 353 2575 817 3079 
Q 1281 3584 2069 3584 
Q 2775 3584 3186 3129 
Q 3597 2675 3597 1894 
z
M 3022 2063 
Q 3016 2534 2758 2815 
Q 2500 3097 2075 3097 
Q 1594 3097 1305 2825 
Q 1016 2553 972 2059 
L 3022 2063 
z
" transform="scale(0.015625)"/>
       <path id="DejaVuSans-6c" d="M 603 4863 
L 1178 4863 
L 1178 0 
L 603 0 
L 603 4863 
z
" transform="scale(0.015625)"/>
       <path id="DejaVuSans-20" transform="scale(0.015625)"/>
       <path id="DejaVuSans-49" d="M 628 4666 
L 1259 4666 
L 1259 0 
L 628 0 
L 628 4666 
z
" transform="scale(0.015625)"/>
       <path id="DejaVuSans-6e" d="M 3513 2113 
L 3513 0 
L 2938 0 
L 2938 2094 
Q 2938 2591 2744 2837 
Q 2550 3084 2163 3084 
Q 1697 3084 1428 2787 
Q 1159 2491 1159 1978 
L 1159 0 
L 581 0 
L 581 3500 
L 1159 3500 
L 1159 2956 
Q 1366 3272 1645 3428 
Q 1925 3584 2291 3584 
Q 2894 3584 3203 3211 
Q 3513 2838 3513 2113 
z
" transform="scale(0.015625)"/>
       <path id="DejaVuSans-74" d="M 1172 4494 
L 1172 3500 
L 2356 3500 
L 2356 3053 
L 1172 3053 
L 1172 1153 
Q 1172 725 1289 603 
Q 1406 481 1766 481 
L 2356 481 
L 2356 0 
L 1766 0 
Q 1100 0 847 248 
Q 594 497 594 1153 
L 594 3053 
L 172 3053 
L 172 3500 
L 594 3500 
L 594 4494 
L 1172 4494 
z
" transform="scale(0.015625)"/>
       <path id="DejaVuSans-73" d="M 2834 3397 
L 2834 2853 
Q 2591 2978 2328 3040 
Q 2066 3103 1784 3103 
Q 1356 3103 1142 2972 
Q 928 2841 928 2578 
Q 928 2378 1081 2264 
Q 1234 2150 1697 2047 
L 1894 2003 
Q 2506 1872 2764 1633 
Q 3022 1394 3022 966 
Q 3022 478 2636 193 
Q 2250 -91 1575 -91 
Q 1294 -91 989 -36 
Q 684 19 347 128 
L 347 722 
Q 666 556 975 473 
Q 1284 391 1588 391 
Q 1994 391 2212 530 
Q 2431 669 2431 922 
Q 2431 1156 2273 1281 
Q 2116 1406 1581 1522 
L 1381 1569 
Q 847 1681 609 1914 
Q 372 2147 372 2553 
Q 372 3047 722 3315 
Q 1072 3584 1716 3584 
Q 2034 3584 2315 3537 
Q 2597 3491 2834 3397 
z
" transform="scale(0.015625)"/>
       <path id="DejaVuSans-79" d="M 2059 -325 
Q 1816 -950 1584 -1140 
Q 1353 -1331 966 -1331 
L 506 -1331 
L 506 -850 
L 844 -850 
Q 1081 -850 1212 -737 
Q 1344 -625 1503 -206 
L 1606 56 
L 191 3500 
L 800 3500 
L 1894 763 
L 2988 3500 
L 3597 3500 
L 2059 -325 
z
" transform="scale(0.015625)"/>
       <path id="DejaVuSans-28" d="M 1984 4856 
Q 1566 4138 1362 3434 
Q 1159 2731 1159 2009 
Q 1159 1288 1364 580 
Q 1569 -128 1984 -844 
L 1484 -844 
Q 1016 -109 783 600 
Q 550 1309 550 2009 
Q 550 2706 781 3412 
Q 1013 4119 1484 4856 
L 1984 4856 
z
" transform="scale(0.015625)"/>
       <path id="DejaVuSans-2d" d="M 313 2009 
L 1997 2009 
L 1997 1497 
L 313 1497 
L 313 2009 
z
" transform="scale(0.015625)"/>
       <path id="DejaVuSans-29" d="M 513 4856 
L 1013 4856 
Q 1481 4119 1714 3412 
Q 1947 2706 1947 2009 
Q 1947 1309 1714 600 
Q 1481 -109 1013 -844 
L 513 -844 
Q 928 -128 1133 580 
Q 1338 1288 1338 2009 
Q 1338 2731 1133 3434 
Q 928 4138 513 4856 
z
" transform="scale(0.015625)"/>
      </defs>
      <use xlink:href="#DejaVuSans-50"/>
      <use xlink:href="#DejaVuSans-69" x="58.052734"/>
      <use xlink:href="#DejaVuSans-78" x="85.835938"/>
      <use xlink:href="#DejaVuSans-65" x="141.890625"/>
      <use xlink:href="#DejaVuSans-6c" x="203.414062"/>
      <use xlink:href="#DejaVuSans-20" x="231.197266"/>
      <use xlink:href="#DejaVuSans-49" x="262.984375"/>
      <use xlink:href="#DejaVuSans-6e" x="292.476562"/>
      <use xlink:href="#DejaVuSans-74" x="355.855469"/>
      <use xlink:href="#DejaVuSans-65" x="395.064453"/>
      <use xlink:href="#DejaVuSans-6e" x="456.587891"/>
      <use xlink:href="#DejaVuSans-73" x="519.966797"/>
      <use xlink:href="#DejaVuSans-69" x="572.066406"/>
      <use xlink:href="#DejaVuSans-74" x="599.849609"/>
      <use xlink:href="#DejaVuSans-79" x="639.058594"/>
      <use xlink:href="#DejaVuSans-28" x="698.238281"/>
      <use xlink:href="#DejaVuSans-30" x="737.251953"/>
      <use xlink:href="#DejaVuSans-2d" x="800.875"/>
      <use xlink:href="#DejaVuSans-32" x="836.958984"/>
      <use xlink:href="#DejaVuSans-35" x="900.582031"/>
      <use xlink:href="#DejaVuSans-35" x="964.205078"/>
      <use xlink:href="#DejaVuSans-29" x="1027.828125"/>
     </g>
    </g>
   </g>
   <g id="matplotlib.axis_2">
    <g id="ytick_1">
     <g id="line2d_7">
      <defs>
       <path id="m37f972e211" d="M 0 0 
L -3.5 0 
" style="stroke: #000000; stroke-width: 0.8"/>
      </defs>
      <g>
       <use xlink:href="#m37f972e211" x="90" y="384.48" style="stroke: #000000; stroke-width: 0.8"/>
      </g>
     </g>
     <g id="text_8">
      <!-- 0 -->
      <g transform="translate(76.6375 388.279219) scale(0.1 -0.1)">
       <use xlink:href="#DejaVuSans-30"/>
      </g>
     </g>
    </g>
    <g id="ytick_2">
     <g id="line2d_8">
      <g>
       <use xlink:href="#m37f972e211" x="90" y="338.164211" style="stroke: #000000; stroke-width: 0.8"/>
      </g>
     </g>
     <g id="text_9">
      <!-- 200 -->
      <g transform="translate(63.9125 341.963429) scale(0.1 -0.1)">
       <use xlink:href="#DejaVuSans-32"/>
       <use xlink:href="#DejaVuSans-30" x="63.623047"/>
       <use xlink:href="#DejaVuSans-30" x="127.246094"/>
      </g>
     </g>
    </g>
    <g id="ytick_3">
     <g id="line2d_9">
      <g>
       <use xlink:href="#m37f972e211" x="90" y="291.848421" style="stroke: #000000; stroke-width: 0.8"/>
      </g>
     </g>
     <g id="text_10">
      <!-- 400 -->
      <g transform="translate(63.9125 295.64764) scale(0.1 -0.1)">
       <defs>
        <path id="DejaVuSans-34" d="M 2419 4116 
L 825 1625 
L 2419 1625 
L 2419 4116 
z
M 2253 4666 
L 3047 4666 
L 3047 1625 
L 3713 1625 
L 3713 1100 
L 3047 1100 
L 3047 0 
L 2419 0 
L 2419 1100 
L 313 1100 
L 313 1709 
L 2253 4666 
z
" transform="scale(0.015625)"/>
       </defs>
       <use xlink:href="#DejaVuSans-34"/>
       <use xlink:href="#DejaVuSans-30" x="63.623047"/>
       <use xlink:href="#DejaVuSans-30" x="127.246094"/>
      </g>
     </g>
    </g>
    <g id="ytick_4">
     <g id="line2d_10">
      <g>
       <use xlink:href="#m37f972e211" x="90" y="245.532632" style="stroke: #000000; stroke-width: 0.8"/>
      </g>
     </g>
     <g id="text_11">
      <!-- 600 -->
      <g transform="translate(63.9125 249.33185) scale(0.1 -0.1)">
       <defs>
        <path id="DejaVuSans-36" d="M 2113 2584 
Q 1688 2584 1439 2293 
Q 1191 2003 1191 1497 
Q 1191 994 1439 701 
Q 1688 409 2113 409 
Q 2538 409 2786 701 
Q 3034 994 3034 1497 
Q 3034 2003 2786 2293 
Q 2538 2584 2113 2584 
z
M 3366 4563 
L 3366 3988 
Q 3128 4100 2886 4159 
Q 2644 4219 2406 4219 
Q 1781 4219 1451 3797 
Q 1122 3375 1075 2522 
Q 1259 2794 1537 2939 
Q 1816 3084 2150 3084 
Q 2853 3084 3261 2657 
Q 3669 2231 3669 1497 
Q 3669 778 3244 343 
Q 2819 -91 2113 -91 
Q 1303 -91 875 529 
Q 447 1150 447 2328 
Q 447 3434 972 4092 
Q 1497 4750 2381 4750 
Q 2619 4750 2861 4703 
Q 3103 4656 3366 4563 
z
" transform="scale(0.015625)"/>
       </defs>
       <use xlink:href="#DejaVuSans-36"/>
       <use xlink:href="#DejaVuSans-30" x="63.623047"/>
       <use xlink:href="#DejaVuSans-30" x="127.246094"/>
      </g>
     </g>
    </g>
    <g id="ytick_5">
     <g id="line2d_11">
      <g>
       <use xlink:href="#m37f972e211" x="90" y="199.216842" style="stroke: #000000; stroke-width: 0.8"/>
      </g>
     </g>
     <g id="text_12">
      <!-- 800 -->
      <g transform="translate(63.9125 203.016061) scale(0.1 -0.1)">
       <defs>
        <path id="DejaVuSans-38" d="M 2034 2216 
Q 1584 2216 1326 1975 
Q 1069 1734 1069 1313 
Q 1069 891 1326 650 
Q 1584 409 2034 409 
Q 2484 409 2743 651 
Q 3003 894 3003 1313 
Q 3003 1734 2745 1975 
Q 2488 2216 2034 2216 
z
M 1403 2484 
Q 997 2584 770 2862 
Q 544 3141 544 3541 
Q 544 4100 942 4425 
Q 1341 4750 2034 4750 
Q 2731 4750 3128 4425 
Q 3525 4100 3525 3541 
Q 3525 3141 3298 2862 
Q 3072 2584 2669 2484 
Q 3125 2378 3379 2068 
Q 3634 1759 3634 1313 
Q 3634 634 3220 271 
Q 2806 -91 2034 -91 
Q 1263 -91 848 271 
Q 434 634 434 1313 
Q 434 1759 690 2068 
Q 947 2378 1403 2484 
z
M 1172 3481 
Q 1172 3119 1398 2916 
Q 1625 2713 2034 2713 
Q 2441 2713 2670 2916 
Q 2900 3119 2900 3481 
Q 2900 3844 2670 4047 
Q 2441 4250 2034 4250 
Q 1625 4250 1398 4047 
Q 1172 3844 1172 3481 
z
" transform="scale(0.015625)"/>
       </defs>
       <use xlink:href="#DejaVuSans-38"/>
       <use xlink:href="#DejaVuSans-30" x="63.623047"/>
       <use xlink:href="#DejaVuSans-30" x="127.246094"/>
      </g>
     </g>
    </g>
    <g id="ytick_6">
     <g id="line2d_12">
      <g>
       <use xlink:href="#m37f972e211" x="90" y="152.901053" style="stroke: #000000; stroke-width: 0.8"/>
      </g>
     </g>
     <g id="text_13">
      <!-- 1000 -->
      <g transform="translate(57.55 156.700271) scale(0.1 -0.1)">
       <use xlink:href="#DejaVuSans-31"/>
       <use xlink:href="#DejaVuSans-30" x="63.623047"/>
       <use xlink:href="#DejaVuSans-30" x="127.246094"/>
       <use xlink:href="#DejaVuSans-30" x="190.869141"/>
      </g>
     </g>
    </g>
    <g id="ytick_7">
     <g id="line2d_13">
      <g>
       <use xlink:href="#m37f972e211" x="90" y="106.585263" style="stroke: #000000; stroke-width: 0.8"/>
      </g>
     </g>
     <g id="text_14">
      <!-- 1200 -->
      <g transform="translate(57.55 110.384482) scale(0.1 -0.1)">
       <use xlink:href="#DejaVuSans-31"/>
       <use xlink:href="#DejaVuSans-32" x="63.623047"/>
       <use xlink:href="#DejaVuSans-30" x="127.246094"/>
       <use xlink:href="#DejaVuSans-30" x="190.869141"/>
      </g>
     </g>
    </g>
    <g id="ytick_8">
     <g id="line2d_14">
      <g>
       <use xlink:href="#m37f972e211" x="90" y="60.269474" style="stroke: #000000; stroke-width: 0.8"/>
      </g>
     </g>
     <g id="text_15">
      <!-- 1400 -->
      <g transform="translate(57.55 64.068692) scale(0.1 -0.1)">
       <use xlink:href="#DejaVuSans-31"/>
       <use xlink:href="#DejaVuSans-34" x="63.623047"/>
       <use xlink:href="#DejaVuSans-30" x="127.246094"/>
       <use xlink:href="#DejaVuSans-30" x="190.869141"/>
      </g>
     </g>
    </g>
   </g>
   <g id="line2d_15">
    <path d="M 314.294118 384.48 
L 314.294118 51.84 
" clip-path="url(#pa28d57b86a)" style="fill: none; stroke: #ffa500; stroke-width: 3; stroke-linecap: square"/>
   </g>
   <g id="patch_259">
    <path d="M 90 384.48 
L 90 51.84 
" style="fill: none; stroke: #000000; stroke-width: 0.8; stroke-linejoin: miter; stroke-linecap: square"/>
   </g>
   <g id="patch_260">
    <path d="M 648 384.48 
L 648 51.84 
" style="fill: none; stroke: #000000; stroke-width: 0.8; stroke-linejoin: miter; stroke-linecap: square"/>
   </g>
   <g id="patch_261">
    <path d="M 90 384.48 
L 648 384.48 
" style="fill: none; stroke: #000000; stroke-width: 0.8; stroke-linejoin: miter; stroke-linecap: square"/>
   </g>
   <g id="patch_262">
    <path d="M 90 51.84 
L 648 51.84 
" style="fill: none; stroke: #000000; stroke-width: 0.8; stroke-linejoin: miter; stroke-linecap: square"/>
   </g>
   <g id="text_16">
    <!-- Can Image Intensity Histogram and Otsu's threshold -->
    <g transform="translate(132.80625 45.84) scale(0.18 -0.18)">
     <defs>
      <path id="DejaVuSans-43" d="M 4122 4306 
L 4122 3641 
Q 3803 3938 3442 4084 
Q 3081 4231 2675 4231 
Q 1875 4231 1450 3742 
Q 1025 3253 1025 2328 
Q 1025 1406 1450 917 
Q 1875 428 2675 428 
Q 3081 428 3442 575 
Q 3803 722 4122 1019 
L 4122 359 
Q 3791 134 3420 21 
Q 3050 -91 2638 -91 
Q 1578 -91 968 557 
Q 359 1206 359 2328 
Q 359 3453 968 4101 
Q 1578 4750 2638 4750 
Q 3056 4750 3426 4639 
Q 3797 4528 4122 4306 
z
" transform="scale(0.015625)"/>
      <path id="DejaVuSans-61" d="M 2194 1759 
Q 1497 1759 1228 1600 
Q 959 1441 959 1056 
Q 959 750 1161 570 
Q 1363 391 1709 391 
Q 2188 391 2477 730 
Q 2766 1069 2766 1631 
L 2766 1759 
L 2194 1759 
z
M 3341 1997 
L 3341 0 
L 2766 0 
L 2766 531 
Q 2569 213 2275 61 
Q 1981 -91 1556 -91 
Q 1019 -91 701 211 
Q 384 513 384 1019 
Q 384 1609 779 1909 
Q 1175 2209 1959 2209 
L 2766 2209 
L 2766 2266 
Q 2766 2663 2505 2880 
Q 2244 3097 1772 3097 
Q 1472 3097 1187 3025 
Q 903 2953 641 2809 
L 641 3341 
Q 956 3463 1253 3523 
Q 1550 3584 1831 3584 
Q 2591 3584 2966 3190 
Q 3341 2797 3341 1997 
z
" transform="scale(0.015625)"/>
      <path id="DejaVuSans-6d" d="M 3328 2828 
Q 3544 3216 3844 3400 
Q 4144 3584 4550 3584 
Q 5097 3584 5394 3201 
Q 5691 2819 5691 2113 
L 5691 0 
L 5113 0 
L 5113 2094 
Q 5113 2597 4934 2840 
Q 4756 3084 4391 3084 
Q 3944 3084 3684 2787 
Q 3425 2491 3425 1978 
L 3425 0 
L 2847 0 
L 2847 2094 
Q 2847 2600 2669 2842 
Q 2491 3084 2119 3084 
Q 1678 3084 1418 2786 
Q 1159 2488 1159 1978 
L 1159 0 
L 581 0 
L 581 3500 
L 1159 3500 
L 1159 2956 
Q 1356 3278 1631 3431 
Q 1906 3584 2284 3584 
Q 2666 3584 2933 3390 
Q 3200 3197 3328 2828 
z
" transform="scale(0.015625)"/>
      <path id="DejaVuSans-67" d="M 2906 1791 
Q 2906 2416 2648 2759 
Q 2391 3103 1925 3103 
Q 1463 3103 1205 2759 
Q 947 2416 947 1791 
Q 947 1169 1205 825 
Q 1463 481 1925 481 
Q 2391 481 2648 825 
Q 2906 1169 2906 1791 
z
M 3481 434 
Q 3481 -459 3084 -895 
Q 2688 -1331 1869 -1331 
Q 1566 -1331 1297 -1286 
Q 1028 -1241 775 -1147 
L 775 -588 
Q 1028 -725 1275 -790 
Q 1522 -856 1778 -856 
Q 2344 -856 2625 -561 
Q 2906 -266 2906 331 
L 2906 616 
Q 2728 306 2450 153 
Q 2172 0 1784 0 
Q 1141 0 747 490 
Q 353 981 353 1791 
Q 353 2603 747 3093 
Q 1141 3584 1784 3584 
Q 2172 3584 2450 3431 
Q 2728 3278 2906 2969 
L 2906 3500 
L 3481 3500 
L 3481 434 
z
" transform="scale(0.015625)"/>
      <path id="DejaVuSans-48" d="M 628 4666 
L 1259 4666 
L 1259 2753 
L 3553 2753 
L 3553 4666 
L 4184 4666 
L 4184 0 
L 3553 0 
L 3553 2222 
L 1259 2222 
L 1259 0 
L 628 0 
L 628 4666 
z
" transform="scale(0.015625)"/>
      <path id="DejaVuSans-6f" d="M 1959 3097 
Q 1497 3097 1228 2736 
Q 959 2375 959 1747 
Q 959 1119 1226 758 
Q 1494 397 1959 397 
Q 2419 397 2687 759 
Q 2956 1122 2956 1747 
Q 2956 2369 2687 2733 
Q 2419 3097 1959 3097 
z
M 1959 3584 
Q 2709 3584 3137 3096 
Q 3566 2609 3566 1747 
Q 3566 888 3137 398 
Q 2709 -91 1959 -91 
Q 1206 -91 779 398 
Q 353 888 353 1747 
Q 353 2609 779 3096 
Q 1206 3584 1959 3584 
z
" transform="scale(0.015625)"/>
      <path id="DejaVuSans-72" d="M 2631 2963 
Q 2534 3019 2420 3045 
Q 2306 3072 2169 3072 
Q 1681 3072 1420 2755 
Q 1159 2438 1159 1844 
L 1159 0 
L 581 0 
L 581 3500 
L 1159 3500 
L 1159 2956 
Q 1341 3275 1631 3429 
Q 1922 3584 2338 3584 
Q 2397 3584 2469 3576 
Q 2541 3569 2628 3553 
L 2631 2963 
z
" transform="scale(0.015625)"/>
      <path id="DejaVuSans-64" d="M 2906 2969 
L 2906 4863 
L 3481 4863 
L 3481 0 
L 2906 0 
L 2906 525 
Q 2725 213 2448 61 
Q 2172 -91 1784 -91 
Q 1150 -91 751 415 
Q 353 922 353 1747 
Q 353 2572 751 3078 
Q 1150 3584 1784 3584 
Q 2172 3584 2448 3432 
Q 2725 3281 2906 2969 
z
M 947 1747 
Q 947 1113 1208 752 
Q 1469 391 1925 391 
Q 2381 391 2643 752 
Q 2906 1113 2906 1747 
Q 2906 2381 2643 2742 
Q 2381 3103 1925 3103 
Q 1469 3103 1208 2742 
Q 947 2381 947 1747 
z
" transform="scale(0.015625)"/>
      <path id="DejaVuSans-4f" d="M 2522 4238 
Q 1834 4238 1429 3725 
Q 1025 3213 1025 2328 
Q 1025 1447 1429 934 
Q 1834 422 2522 422 
Q 3209 422 3611 934 
Q 4013 1447 4013 2328 
Q 4013 3213 3611 3725 
Q 3209 4238 2522 4238 
z
M 2522 4750 
Q 3503 4750 4090 4092 
Q 4678 3434 4678 2328 
Q 4678 1225 4090 567 
Q 3503 -91 2522 -91 
Q 1538 -91 948 565 
Q 359 1222 359 2328 
Q 359 3434 948 4092 
Q 1538 4750 2522 4750 
z
" transform="scale(0.015625)"/>
      <path id="DejaVuSans-75" d="M 544 1381 
L 544 3500 
L 1119 3500 
L 1119 1403 
Q 1119 906 1312 657 
Q 1506 409 1894 409 
Q 2359 409 2629 706 
Q 2900 1003 2900 1516 
L 2900 3500 
L 3475 3500 
L 3475 0 
L 2900 0 
L 2900 538 
Q 2691 219 2414 64 
Q 2138 -91 1772 -91 
Q 1169 -91 856 284 
Q 544 659 544 1381 
z
M 1991 3584 
L 1991 3584 
z
" transform="scale(0.015625)"/>
      <path id="DejaVuSans-27" d="M 1147 4666 
L 1147 2931 
L 616 2931 
L 616 4666 
L 1147 4666 
z
" transform="scale(0.015625)"/>
      <path id="DejaVuSans-68" d="M 3513 2113 
L 3513 0 
L 2938 0 
L 2938 2094 
Q 2938 2591 2744 2837 
Q 2550 3084 2163 3084 
Q 1697 3084 1428 2787 
Q 1159 2491 1159 1978 
L 1159 0 
L 581 0 
L 581 4863 
L 1159 4863 
L 1159 2956 
Q 1366 3272 1645 3428 
Q 1925 3584 2291 3584 
Q 2894 3584 3203 3211 
Q 3513 2838 3513 2113 
z
" transform="scale(0.015625)"/>
     </defs>
     <use xlink:href="#DejaVuSans-43"/>
     <use xlink:href="#DejaVuSans-61" x="69.824219"/>
     <use xlink:href="#DejaVuSans-6e" x="131.103516"/>
     <use xlink:href="#DejaVuSans-20" x="194.482422"/>
     <use xlink:href="#DejaVuSans-49" x="226.269531"/>
     <use xlink:href="#DejaVuSans-6d" x="255.761719"/>
     <use xlink:href="#DejaVuSans-61" x="353.173828"/>
     <use xlink:href="#DejaVuSans-67" x="414.453125"/>
     <use xlink:href="#DejaVuSans-65" x="477.929688"/>
     <use xlink:href="#DejaVuSans-20" x="539.453125"/>
     <use xlink:href="#DejaVuSans-49" x="571.240234"/>
     <use xlink:href="#DejaVuSans-6e" x="600.732422"/>
     <use xlink:href="#DejaVuSans-74" x="664.111328"/>
     <use xlink:href="#DejaVuSans-65" x="703.320312"/>
     <use xlink:href="#DejaVuSans-6e" x="764.84375"/>
     <use xlink:href="#DejaVuSans-73" x="828.222656"/>
     <use xlink:href="#DejaVuSans-69" x="880.322266"/>
     <use xlink:href="#DejaVuSans-74" x="908.105469"/>
     <use xlink:href="#DejaVuSans-79" x="947.314453"/>
     <use xlink:href="#DejaVuSans-20" x="1006.494141"/>
     <use xlink:href="#DejaVuSans-48" x="1038.28125"/>
     <use xlink:href="#DejaVuSans-69" x="1113.476562"/>
     <use xlink:href="#DejaVuSans-73" x="1141.259766"/>
     <use xlink:href="#DejaVuSans-74" x="1193.359375"/>
     <use xlink:href="#DejaVuSans-6f" x="1232.568359"/>
     <use xlink:href="#DejaVuSans-67" x="1293.75"/>
     <use xlink:href="#DejaVuSans-72" x="1357.226562"/>
     <use xlink:href="#DejaVuSans-61" x="1398.339844"/>
     <use xlink:href="#DejaVuSans-6d" x="1459.619141"/>
     <use xlink:href="#DejaVuSans-20" x="1557.03125"/>
     <use xlink:href="#DejaVuSans-61" x="1588.818359"/>
     <use xlink:href="#DejaVuSans-6e" x="1650.097656"/>
     <use xlink:href="#DejaVuSans-64" x="1713.476562"/>
     <use xlink:href="#DejaVuSans-20" x="1776.953125"/>
     <use xlink:href="#DejaVuSans-4f" x="1808.740234"/>
     <use xlink:href="#DejaVuSans-74" x="1887.451172"/>
     <use xlink:href="#DejaVuSans-73" x="1926.660156"/>
     <use xlink:href="#DejaVuSans-75" x="1978.759766"/>
     <use xlink:href="#DejaVuSans-27" x="2042.138672"/>
     <use xlink:href="#DejaVuSans-73" x="2069.628906"/>
     <use xlink:href="#DejaVuSans-20" x="2121.728516"/>
     <use xlink:href="#DejaVuSans-74" x="2153.515625"/>
     <use xlink:href="#DejaVuSans-68" x="2192.724609"/>
     <use xlink:href="#DejaVuSans-72" x="2256.103516"/>
     <use xlink:href="#DejaVuSans-65" x="2294.966797"/>
     <use xlink:href="#DejaVuSans-73" x="2356.490234"/>
     <use xlink:href="#DejaVuSans-68" x="2408.589844"/>
     <use xlink:href="#DejaVuSans-6f" x="2471.96875"/>
     <use xlink:href="#DejaVuSans-6c" x="2533.150391"/>
     <use xlink:href="#DejaVuSans-64" x="2560.933594"/>
    </g>
   </g>
  </g>
 </g>
 <defs>
  <clipPath id="pa28d57b86a">
   <rect x="90" y="51.84" width="558" height="332.64"/>
  </clipPath>
 </defs>
</svg>
